<?xml version="1.0" encoding="utf-8" standalone="no"?>
<!DOCTYPE svg PUBLIC "-//W3C//DTD SVG 1.1//EN"
  "http://www.w3.org/Graphics/SVG/1.1/DTD/svg11.dtd">
<!-- Created with matplotlib (https://matplotlib.org/) -->
<svg height="432pt" version="1.1" viewBox="0 0 1008 432" width="1008pt" xmlns="http://www.w3.org/2000/svg" xmlns:xlink="http://www.w3.org/1999/xlink">
 <metadata>
  <rdf:RDF xmlns:cc="http://creativecommons.org/ns#" xmlns:dc="http://purl.org/dc/elements/1.1/" xmlns:rdf="http://www.w3.org/1999/02/22-rdf-syntax-ns#">
   <cc:Work>
    <dc:type rdf:resource="http://purl.org/dc/dcmitype/StillImage"/>
    <dc:date>2020-11-04T17:43:57.246270</dc:date>
    <dc:format>image/svg+xml</dc:format>
    <dc:creator>
     <cc:Agent>
      <dc:title>Matplotlib v3.3.0, https://matplotlib.org/</dc:title>
     </cc:Agent>
    </dc:creator>
   </cc:Work>
  </rdf:RDF>
 </metadata>
 <defs>
  <style type="text/css">*{stroke-linecap:butt;stroke-linejoin:round;}</style>
 </defs>
 <g id="figure_1">
  <g id="patch_1">
   <path d="M 0 432 
L 1008 432 
L 1008 0 
L 0 0 
z
" style="fill:none;"/>
  </g>
  <g id="axes_1">
   <g id="patch_2">
    <path d="M 126 378 
L 907.2 378 
L 907.2 51.84 
L 126 51.84 
z
" style="fill:#ffffff;"/>
   </g>
   <g id="PathCollection_1">
    <defs>
     <path d="M 0 3 
C 0.795609 3 1.55874 2.683901 2.12132 2.12132 
C 2.683901 1.55874 3 0.795609 3 0 
C 3 -0.795609 2.683901 -1.55874 2.12132 -2.12132 
C 1.55874 -2.683901 0.795609 -3 0 -3 
C -0.795609 -3 -1.55874 -2.683901 -2.12132 -2.12132 
C -2.683901 -1.55874 -3 -0.795609 -3 0 
C -3 0.795609 -2.683901 1.55874 -2.12132 2.12132 
C -1.55874 2.683901 -0.795609 3 0 3 
z
" id="m5eff887bca" style="stroke:#ff0000;"/>
    </defs>
    <g clip-path="url(#pbaf3f741c2)">
     <use style="fill:#ff0000;stroke:#ff0000;" x="282.884421" xlink:href="#m5eff887bca" y="356.271313"/>
     <use style="fill:#ff0000;stroke:#ff0000;" x="499.805832" xlink:href="#m5eff887bca" y="329.836997"/>
     <use style="fill:#ff0000;stroke:#ff0000;" x="499.1808" xlink:href="#m5eff887bca" y="326.790959"/>
     <use style="fill:#ff0000;stroke:#ff0000;" x="543.480696" xlink:href="#m5eff887bca" y="327.735665"/>
     <use style="fill:#ff0000;stroke:#ff0000;" x="786.155193" xlink:href="#m5eff887bca" y="318.390225"/>
     <use style="fill:#ff0000;stroke:#ff0000;" x="334.530776" xlink:href="#m5eff887bca" y="349.541527"/>
     <use style="fill:#ff0000;stroke:#ff0000;" x="176.093149" xlink:href="#m5eff887bca" y="336.785138"/>
     <use style="fill:#ff0000;stroke:#ff0000;" x="544.885384" xlink:href="#m5eff887bca" y="332.307517"/>
     <use style="fill:#ff0000;stroke:#ff0000;" x="262.171425" xlink:href="#m5eff887bca" y="264.447947"/>
     <use style="fill:#ff0000;stroke:#ff0000;" x="297.29139" xlink:href="#m5eff887bca" y="311.824615"/>
     <use style="fill:#ff0000;stroke:#ff0000;" x="166.150835" xlink:href="#m5eff887bca" y="290.27637"/>
     <use style="fill:#ff0000;stroke:#ff0000;" x="299.660059" xlink:href="#m5eff887bca" y="349.460303"/>
     <use style="fill:#ff0000;stroke:#ff0000;" x="183.183289" xlink:href="#m5eff887bca" y="355.057407"/>
     <use style="fill:#ff0000;stroke:#ff0000;" x="324.497253" xlink:href="#m5eff887bca" y="322.903799"/>
     <use style="fill:#ff0000;stroke:#ff0000;" x="368.710861" xlink:href="#m5eff887bca" y="340.843917"/>
     <use style="fill:#ff0000;stroke:#ff0000;" x="221.192819" xlink:href="#m5eff887bca" y="351.617285"/>
     <use style="fill:#ff0000;stroke:#ff0000;" x="209.585004" xlink:href="#m5eff887bca" y="363.174545"/>
     <use style="fill:#ff0000;stroke:#ff0000;" x="443.473108" xlink:href="#m5eff887bca" y="324.440583"/>
     <use style="fill:#ff0000;stroke:#ff0000;" x="573.148712" xlink:href="#m5eff887bca" y="319.053785"/>
     <use style="fill:#ff0000;stroke:#ff0000;" x="167.081387" xlink:href="#m5eff887bca" y="327.186455"/>
     <use style="fill:#ff0000;stroke:#ff0000;" x="241.428548" xlink:href="#m5eff887bca" y="325.324539"/>
     <use style="fill:#ff0000;stroke:#ff0000;" x="165.867311" xlink:href="#m5eff887bca" y="235.356821"/>
     <use style="fill:#ff0000;stroke:#ff0000;" x="244.603064" xlink:href="#m5eff887bca" y="248.135352"/>
     <use style="fill:#ff0000;stroke:#ff0000;" x="423.550934" xlink:href="#m5eff887bca" y="348.948668"/>
     <use style="fill:#ff0000;stroke:#ff0000;" x="210.149791" xlink:href="#m5eff887bca" y="310.578236"/>
     <use style="fill:#ff0000;stroke:#ff0000;" x="174.074515" xlink:href="#m5eff887bca" y="306.141652"/>
     <use style="fill:#ff0000;stroke:#ff0000;" x="215.450474" xlink:href="#m5eff887bca" y="325.378911"/>
     <use style="fill:#ff0000;stroke:#ff0000;" x="324.671959" xlink:href="#m5eff887bca" y="355.328497"/>
     <use style="fill:#ff0000;stroke:#ff0000;" x="791.150084" xlink:href="#m5eff887bca" y="327.065896"/>
     <use style="fill:#ff0000;stroke:#ff0000;" x="177.272288" xlink:href="#m5eff887bca" y="328.116481"/>
     <use style="fill:#ff0000;stroke:#ff0000;" x="196.707209" xlink:href="#m5eff887bca" y="349.714786"/>
     <use style="fill:#ff0000;stroke:#ff0000;" x="699.738256" xlink:href="#m5eff887bca" y="336.579121"/>
     <use style="fill:#ff0000;stroke:#ff0000;" x="242.854788" xlink:href="#m5eff887bca" y="333.658543"/>
     <use style="fill:#ff0000;stroke:#ff0000;" x="194.471009" xlink:href="#m5eff887bca" y="289.48645"/>
     <use style="fill:#ff0000;stroke:#ff0000;" x="189.06067" xlink:href="#m5eff887bca" y="312.513192"/>
     <use style="fill:#ff0000;stroke:#ff0000;" x="399.382936" xlink:href="#m5eff887bca" y="342.447385"/>
     <use style="fill:#ff0000;stroke:#ff0000;" x="834.700052" xlink:href="#m5eff887bca" y="336.577769"/>
     <use style="fill:#ff0000;stroke:#ff0000;" x="256.967803" xlink:href="#m5eff887bca" y="325.00657"/>
     <use style="fill:#ff0000;stroke:#ff0000;" x="194.682563" xlink:href="#m5eff887bca" y="359.098635"/>
     <use style="fill:#ff0000;stroke:#ff0000;" x="183.39538" xlink:href="#m5eff887bca" y="324.529096"/>
     <use style="fill:#ff0000;stroke:#ff0000;" x="189.969495" xlink:href="#m5eff887bca" y="270.759231"/>
     <use style="fill:#ff0000;stroke:#ff0000;" x="220.856037" xlink:href="#m5eff887bca" y="344.108943"/>
     <use style="fill:#ff0000;stroke:#ff0000;" x="313.616481" xlink:href="#m5eff887bca" y="338.135102"/>
     <use style="fill:#ff0000;stroke:#ff0000;" x="212.182487" xlink:href="#m5eff887bca" y="332.421001"/>
     <use style="fill:#ff0000;stroke:#ff0000;" x="176.356652" xlink:href="#m5eff887bca" y="305.697737"/>
     <use style="fill:#ff0000;stroke:#ff0000;" x="179.173316" xlink:href="#m5eff887bca" y="299.636845"/>
     <use style="fill:#ff0000;stroke:#ff0000;" x="341.107861" xlink:href="#m5eff887bca" y="319.58838"/>
     <use style="fill:#ff0000;stroke:#ff0000;" x="331.868783" xlink:href="#m5eff887bca" y="353.100095"/>
     <use style="fill:#ff0000;stroke:#ff0000;" x="512.729044" xlink:href="#m5eff887bca" y="330.875268"/>
     <use style="fill:#ff0000;stroke:#ff0000;" x="218.111986" xlink:href="#m5eff887bca" y="345.136178"/>
     <use style="fill:#ff0000;stroke:#ff0000;" x="360.676815" xlink:href="#m5eff887bca" y="291.767058"/>
     <use style="fill:#ff0000;stroke:#ff0000;" x="202.26261" xlink:href="#m5eff887bca" y="335.25266"/>
     <use style="fill:#ff0000;stroke:#ff0000;" x="176.75064" xlink:href="#m5eff887bca" y="272.891206"/>
     <use style="fill:#ff0000;stroke:#ff0000;" x="213.412273" xlink:href="#m5eff887bca" y="324.049111"/>
     <use style="fill:#ff0000;stroke:#ff0000;" x="305.000471" xlink:href="#m5eff887bca" y="326.178646"/>
     <use style="fill:#ff0000;stroke:#ff0000;" x="626.164637" xlink:href="#m5eff887bca" y="334.166547"/>
     <use style="fill:#ff0000;stroke:#ff0000;" x="276.265331" xlink:href="#m5eff887bca" y="313.596769"/>
     <use style="fill:#ff0000;stroke:#ff0000;" x="455.062176" xlink:href="#m5eff887bca" y="344.795678"/>
     <use style="fill:#ff0000;stroke:#ff0000;" x="460.6839" xlink:href="#m5eff887bca" y="324.677358"/>
     <use style="fill:#ff0000;stroke:#ff0000;" x="780.279942" xlink:href="#m5eff887bca" y="327.080846"/>
     <use style="fill:#ff0000;stroke:#ff0000;" x="314.647236" xlink:href="#m5eff887bca" y="333.489256"/>
     <use style="fill:#ff0000;stroke:#ff0000;" x="222.095464" xlink:href="#m5eff887bca" y="318.467046"/>
     <use style="fill:#ff0000;stroke:#ff0000;" x="177.630434" xlink:href="#m5eff887bca" y="353.694762"/>
     <use style="fill:#ff0000;stroke:#ff0000;" x="367.370988" xlink:href="#m5eff887bca" y="323.761106"/>
     <use style="fill:#ff0000;stroke:#ff0000;" x="723.970681" xlink:href="#m5eff887bca" y="333.551688"/>
     <use style="fill:#ff0000;stroke:#ff0000;" x="180.650279" xlink:href="#m5eff887bca" y="356.350451"/>
     <use style="fill:#ff0000;stroke:#ff0000;" x="185.802122" xlink:href="#m5eff887bca" y="270.338636"/>
     <use style="fill:#ff0000;stroke:#ff0000;" x="233.261895" xlink:href="#m5eff887bca" y="333.980551"/>
     <use style="fill:#ff0000;stroke:#ff0000;" x="213.513426" xlink:href="#m5eff887bca" y="331.541759"/>
     <use style="fill:#ff0000;stroke:#ff0000;" x="320.407189" xlink:href="#m5eff887bca" y="66.665455"/>
     <use style="fill:#ff0000;stroke:#ff0000;" x="360.66174" xlink:href="#m5eff887bca" y="340.375501"/>
     <use style="fill:#ff0000;stroke:#ff0000;" x="249.492616" xlink:href="#m5eff887bca" y="350.137482"/>
     <use style="fill:#ff0000;stroke:#ff0000;" x="388.178148" xlink:href="#m5eff887bca" y="332.720447"/>
     <use style="fill:#ff0000;stroke:#ff0000;" x="179.325836" xlink:href="#m5eff887bca" y="258.430845"/>
     <use style="fill:#ff0000;stroke:#ff0000;" x="871.690909" xlink:href="#m5eff887bca" y="316.932912"/>
     <use style="fill:#ff0000;stroke:#ff0000;" x="180.918364" xlink:href="#m5eff887bca" y="330.763745"/>
     <use style="fill:#ff0000;stroke:#ff0000;" x="216.098882" xlink:href="#m5eff887bca" y="341.690516"/>
     <use style="fill:#ff0000;stroke:#ff0000;" x="201.21969" xlink:href="#m5eff887bca" y="292.242671"/>
     <use style="fill:#ff0000;stroke:#ff0000;" x="226.379253" xlink:href="#m5eff887bca" y="329.618933"/>
     <use style="fill:#ff0000;stroke:#ff0000;" x="213.498651" xlink:href="#m5eff887bca" y="337.541312"/>
     <use style="fill:#ff0000;stroke:#ff0000;" x="183.432417" xlink:href="#m5eff887bca" y="342.974347"/>
     <use style="fill:#ff0000;stroke:#ff0000;" x="174.208806" xlink:href="#m5eff887bca" y="327.025175"/>
     <use style="fill:#ff0000;stroke:#ff0000;" x="216.476943" xlink:href="#m5eff887bca" y="318.845522"/>
     <use style="fill:#ff0000;stroke:#ff0000;" x="245.865991" xlink:href="#m5eff887bca" y="292.717701"/>
     <use style="fill:#ff0000;stroke:#ff0000;" x="197.998139" xlink:href="#m5eff887bca" y="349.821728"/>
     <use style="fill:#ff0000;stroke:#ff0000;" x="221.422257" xlink:href="#m5eff887bca" y="320.907839"/>
     <use style="fill:#ff0000;stroke:#ff0000;" x="202.573845" xlink:href="#m5eff887bca" y="330.117103"/>
     <use style="fill:#ff0000;stroke:#ff0000;" x="262.898569" xlink:href="#m5eff887bca" y="337.999276"/>
     <use style="fill:#ff0000;stroke:#ff0000;" x="193.755563" xlink:href="#m5eff887bca" y="347.937942"/>
     <use style="fill:#ff0000;stroke:#ff0000;" x="285.624834" xlink:href="#m5eff887bca" y="331.618596"/>
     <use style="fill:#ff0000;stroke:#ff0000;" x="414.786568" xlink:href="#m5eff887bca" y="343.042359"/>
     <use style="fill:#ff0000;stroke:#ff0000;" x="205.796709" xlink:href="#m5eff887bca" y="346.318456"/>
     <use style="fill:#ff0000;stroke:#ff0000;" x="283.327351" xlink:href="#m5eff887bca" y="330.441407"/>
     <use style="fill:#ff0000;stroke:#ff0000;" x="227.920136" xlink:href="#m5eff887bca" y="225.654897"/>
     <use style="fill:#ff0000;stroke:#ff0000;" x="252.229659" xlink:href="#m5eff887bca" y="329.898384"/>
     <use style="fill:#ff0000;stroke:#ff0000;" x="641.460766" xlink:href="#m5eff887bca" y="329.597053"/>
     <use style="fill:#ff0000;stroke:#ff0000;" x="228.619846" xlink:href="#m5eff887bca" y="328.360784"/>
     <use style="fill:#ff0000;stroke:#ff0000;" x="264.602536" xlink:href="#m5eff887bca" y="327.732449"/>
     <use style="fill:#ff0000;stroke:#ff0000;" x="170.659382" xlink:href="#m5eff887bca" y="307.095127"/>
     <use style="fill:#ff0000;stroke:#ff0000;" x="161.509091" xlink:href="#m5eff887bca" y="354.872058"/>
     <use style="fill:#ff0000;stroke:#ff0000;" x="277.504725" xlink:href="#m5eff887bca" y="337.563717"/>
     <use style="fill:#ff0000;stroke:#ff0000;" x="342.866952" xlink:href="#m5eff887bca" y="332.660148"/>
     <use style="fill:#ff0000;stroke:#ff0000;" x="297.706347" xlink:href="#m5eff887bca" y="328.226561"/>
     <use style="fill:#ff0000;stroke:#ff0000;" x="198.93198" xlink:href="#m5eff887bca" y="221.187035"/>
     <use style="fill:#ff0000;stroke:#ff0000;" x="209.561331" xlink:href="#m5eff887bca" y="329.78811"/>
     <use style="fill:#ff0000;stroke:#ff0000;" x="391.697496" xlink:href="#m5eff887bca" y="323.520295"/>
     <use style="fill:#ff0000;stroke:#ff0000;" x="218.578535" xlink:href="#m5eff887bca" y="329.301102"/>
    </g>
   </g>
   <g id="matplotlib.axis_1">
    <g id="xtick_1">
     <g id="line2d_1">
      <defs>
       <path d="M 0 0 
L 0 3.5 
" id="mc153cd3e32" style="stroke:#000000;stroke-width:0.8;"/>
      </defs>
      <g>
       <use style="stroke:#000000;stroke-width:0.8;" x="160.011411" xlink:href="#mc153cd3e32" y="378"/>
      </g>
     </g>
     <g id="text_1">
      <!-- 0 -->
      <g transform="translate(156.830161 392.598437)scale(0.1 -0.1)">
       <defs>
        <path d="M 31.78125 66.40625 
Q 24.171875 66.40625 20.328125 58.90625 
Q 16.5 51.421875 16.5 36.375 
Q 16.5 21.390625 20.328125 13.890625 
Q 24.171875 6.390625 31.78125 6.390625 
Q 39.453125 6.390625 43.28125 13.890625 
Q 47.125 21.390625 47.125 36.375 
Q 47.125 51.421875 43.28125 58.90625 
Q 39.453125 66.40625 31.78125 66.40625 
z
M 31.78125 74.21875 
Q 44.046875 74.21875 50.515625 64.515625 
Q 56.984375 54.828125 56.984375 36.375 
Q 56.984375 17.96875 50.515625 8.265625 
Q 44.046875 -1.421875 31.78125 -1.421875 
Q 19.53125 -1.421875 13.0625 8.265625 
Q 6.59375 17.96875 6.59375 36.375 
Q 6.59375 54.828125 13.0625 64.515625 
Q 19.53125 74.21875 31.78125 74.21875 
z
" id="DejaVuSans-48"/>
       </defs>
       <use xlink:href="#DejaVuSans-48"/>
      </g>
     </g>
    </g>
    <g id="xtick_2">
     <g id="line2d_2">
      <g>
       <use style="stroke:#000000;stroke-width:0.8;" x="318.092321" xlink:href="#mc153cd3e32" y="378"/>
      </g>
     </g>
     <g id="text_2">
      <!-- 50 -->
      <g transform="translate(311.729821 392.598437)scale(0.1 -0.1)">
       <defs>
        <path d="M 10.796875 72.90625 
L 49.515625 72.90625 
L 49.515625 64.59375 
L 19.828125 64.59375 
L 19.828125 46.734375 
Q 21.96875 47.46875 24.109375 47.828125 
Q 26.265625 48.1875 28.421875 48.1875 
Q 40.625 48.1875 47.75 41.5 
Q 54.890625 34.8125 54.890625 23.390625 
Q 54.890625 11.625 47.5625 5.09375 
Q 40.234375 -1.421875 26.90625 -1.421875 
Q 22.3125 -1.421875 17.546875 -0.640625 
Q 12.796875 0.140625 7.71875 1.703125 
L 7.71875 11.625 
Q 12.109375 9.234375 16.796875 8.0625 
Q 21.484375 6.890625 26.703125 6.890625 
Q 35.15625 6.890625 40.078125 11.328125 
Q 45.015625 15.765625 45.015625 23.390625 
Q 45.015625 31 40.078125 35.4375 
Q 35.15625 39.890625 26.703125 39.890625 
Q 22.75 39.890625 18.8125 39.015625 
Q 14.890625 38.140625 10.796875 36.28125 
z
" id="DejaVuSans-53"/>
       </defs>
       <use xlink:href="#DejaVuSans-53"/>
       <use x="63.623047" xlink:href="#DejaVuSans-48"/>
      </g>
     </g>
    </g>
    <g id="xtick_3">
     <g id="line2d_3">
      <g>
       <use style="stroke:#000000;stroke-width:0.8;" x="476.17323" xlink:href="#mc153cd3e32" y="378"/>
      </g>
     </g>
     <g id="text_3">
      <!-- 100 -->
      <g transform="translate(466.62948 392.598437)scale(0.1 -0.1)">
       <defs>
        <path d="M 12.40625 8.296875 
L 28.515625 8.296875 
L 28.515625 63.921875 
L 10.984375 60.40625 
L 10.984375 69.390625 
L 28.421875 72.90625 
L 38.28125 72.90625 
L 38.28125 8.296875 
L 54.390625 8.296875 
L 54.390625 0 
L 12.40625 0 
z
" id="DejaVuSans-49"/>
       </defs>
       <use xlink:href="#DejaVuSans-49"/>
       <use x="63.623047" xlink:href="#DejaVuSans-48"/>
       <use x="127.246094" xlink:href="#DejaVuSans-48"/>
      </g>
     </g>
    </g>
    <g id="xtick_4">
     <g id="line2d_4">
      <g>
       <use style="stroke:#000000;stroke-width:0.8;" x="634.25414" xlink:href="#mc153cd3e32" y="378"/>
      </g>
     </g>
     <g id="text_4">
      <!-- 150 -->
      <g transform="translate(624.71039 392.598437)scale(0.1 -0.1)">
       <use xlink:href="#DejaVuSans-49"/>
       <use x="63.623047" xlink:href="#DejaVuSans-53"/>
       <use x="127.246094" xlink:href="#DejaVuSans-48"/>
      </g>
     </g>
    </g>
    <g id="xtick_5">
     <g id="line2d_5">
      <g>
       <use style="stroke:#000000;stroke-width:0.8;" x="792.335049" xlink:href="#mc153cd3e32" y="378"/>
      </g>
     </g>
     <g id="text_5">
      <!-- 200 -->
      <g transform="translate(782.791299 392.598437)scale(0.1 -0.1)">
       <defs>
        <path d="M 19.1875 8.296875 
L 53.609375 8.296875 
L 53.609375 0 
L 7.328125 0 
L 7.328125 8.296875 
Q 12.9375 14.109375 22.625 23.890625 
Q 32.328125 33.6875 34.8125 36.53125 
Q 39.546875 41.84375 41.421875 45.53125 
Q 43.3125 49.21875 43.3125 52.78125 
Q 43.3125 58.59375 39.234375 62.25 
Q 35.15625 65.921875 28.609375 65.921875 
Q 23.96875 65.921875 18.8125 64.3125 
Q 13.671875 62.703125 7.8125 59.421875 
L 7.8125 69.390625 
Q 13.765625 71.78125 18.9375 73 
Q 24.125 74.21875 28.421875 74.21875 
Q 39.75 74.21875 46.484375 68.546875 
Q 53.21875 62.890625 53.21875 53.421875 
Q 53.21875 48.921875 51.53125 44.890625 
Q 49.859375 40.875 45.40625 35.40625 
Q 44.1875 33.984375 37.640625 27.21875 
Q 31.109375 20.453125 19.1875 8.296875 
z
" id="DejaVuSans-50"/>
       </defs>
       <use xlink:href="#DejaVuSans-50"/>
       <use x="63.623047" xlink:href="#DejaVuSans-48"/>
       <use x="127.246094" xlink:href="#DejaVuSans-48"/>
      </g>
     </g>
    </g>
    <g id="text_6">
     <!-- Predicted Box Office Sequel (USD), Millions -->
     <g transform="translate(366.357031 409.315938)scale(0.14 -0.14)">
      <defs>
       <path d="M 19.671875 64.796875 
L 19.671875 37.40625 
L 32.078125 37.40625 
Q 38.96875 37.40625 42.71875 40.96875 
Q 46.484375 44.53125 46.484375 51.125 
Q 46.484375 57.671875 42.71875 61.234375 
Q 38.96875 64.796875 32.078125 64.796875 
z
M 9.8125 72.90625 
L 32.078125 72.90625 
Q 44.34375 72.90625 50.609375 67.359375 
Q 56.890625 61.8125 56.890625 51.125 
Q 56.890625 40.328125 50.609375 34.8125 
Q 44.34375 29.296875 32.078125 29.296875 
L 19.671875 29.296875 
L 19.671875 0 
L 9.8125 0 
z
" id="DejaVuSans-80"/>
       <path d="M 41.109375 46.296875 
Q 39.59375 47.171875 37.8125 47.578125 
Q 36.03125 48 33.890625 48 
Q 26.265625 48 22.1875 43.046875 
Q 18.109375 38.09375 18.109375 28.8125 
L 18.109375 0 
L 9.078125 0 
L 9.078125 54.6875 
L 18.109375 54.6875 
L 18.109375 46.1875 
Q 20.953125 51.171875 25.484375 53.578125 
Q 30.03125 56 36.53125 56 
Q 37.453125 56 38.578125 55.875 
Q 39.703125 55.765625 41.0625 55.515625 
z
" id="DejaVuSans-114"/>
       <path d="M 56.203125 29.59375 
L 56.203125 25.203125 
L 14.890625 25.203125 
Q 15.484375 15.921875 20.484375 11.0625 
Q 25.484375 6.203125 34.421875 6.203125 
Q 39.59375 6.203125 44.453125 7.46875 
Q 49.3125 8.734375 54.109375 11.28125 
L 54.109375 2.78125 
Q 49.265625 0.734375 44.1875 -0.34375 
Q 39.109375 -1.421875 33.890625 -1.421875 
Q 20.796875 -1.421875 13.15625 6.1875 
Q 5.515625 13.8125 5.515625 26.8125 
Q 5.515625 40.234375 12.765625 48.109375 
Q 20.015625 56 32.328125 56 
Q 43.359375 56 49.78125 48.890625 
Q 56.203125 41.796875 56.203125 29.59375 
z
M 47.21875 32.234375 
Q 47.125 39.59375 43.09375 43.984375 
Q 39.0625 48.390625 32.421875 48.390625 
Q 24.90625 48.390625 20.390625 44.140625 
Q 15.875 39.890625 15.1875 32.171875 
z
" id="DejaVuSans-101"/>
       <path d="M 45.40625 46.390625 
L 45.40625 75.984375 
L 54.390625 75.984375 
L 54.390625 0 
L 45.40625 0 
L 45.40625 8.203125 
Q 42.578125 3.328125 38.25 0.953125 
Q 33.9375 -1.421875 27.875 -1.421875 
Q 17.96875 -1.421875 11.734375 6.484375 
Q 5.515625 14.40625 5.515625 27.296875 
Q 5.515625 40.1875 11.734375 48.09375 
Q 17.96875 56 27.875 56 
Q 33.9375 56 38.25 53.625 
Q 42.578125 51.265625 45.40625 46.390625 
z
M 14.796875 27.296875 
Q 14.796875 17.390625 18.875 11.75 
Q 22.953125 6.109375 30.078125 6.109375 
Q 37.203125 6.109375 41.296875 11.75 
Q 45.40625 17.390625 45.40625 27.296875 
Q 45.40625 37.203125 41.296875 42.84375 
Q 37.203125 48.484375 30.078125 48.484375 
Q 22.953125 48.484375 18.875 42.84375 
Q 14.796875 37.203125 14.796875 27.296875 
z
" id="DejaVuSans-100"/>
       <path d="M 9.421875 54.6875 
L 18.40625 54.6875 
L 18.40625 0 
L 9.421875 0 
z
M 9.421875 75.984375 
L 18.40625 75.984375 
L 18.40625 64.59375 
L 9.421875 64.59375 
z
" id="DejaVuSans-105"/>
       <path d="M 48.78125 52.59375 
L 48.78125 44.1875 
Q 44.96875 46.296875 41.140625 47.34375 
Q 37.3125 48.390625 33.40625 48.390625 
Q 24.65625 48.390625 19.8125 42.84375 
Q 14.984375 37.3125 14.984375 27.296875 
Q 14.984375 17.28125 19.8125 11.734375 
Q 24.65625 6.203125 33.40625 6.203125 
Q 37.3125 6.203125 41.140625 7.25 
Q 44.96875 8.296875 48.78125 10.40625 
L 48.78125 2.09375 
Q 45.015625 0.34375 40.984375 -0.53125 
Q 36.96875 -1.421875 32.421875 -1.421875 
Q 20.0625 -1.421875 12.78125 6.34375 
Q 5.515625 14.109375 5.515625 27.296875 
Q 5.515625 40.671875 12.859375 48.328125 
Q 20.21875 56 33.015625 56 
Q 37.15625 56 41.109375 55.140625 
Q 45.0625 54.296875 48.78125 52.59375 
z
" id="DejaVuSans-99"/>
       <path d="M 18.3125 70.21875 
L 18.3125 54.6875 
L 36.8125 54.6875 
L 36.8125 47.703125 
L 18.3125 47.703125 
L 18.3125 18.015625 
Q 18.3125 11.328125 20.140625 9.421875 
Q 21.96875 7.515625 27.59375 7.515625 
L 36.8125 7.515625 
L 36.8125 0 
L 27.59375 0 
Q 17.1875 0 13.234375 3.875 
Q 9.28125 7.765625 9.28125 18.015625 
L 9.28125 47.703125 
L 2.6875 47.703125 
L 2.6875 54.6875 
L 9.28125 54.6875 
L 9.28125 70.21875 
z
" id="DejaVuSans-116"/>
       <path id="DejaVuSans-32"/>
       <path d="M 19.671875 34.8125 
L 19.671875 8.109375 
L 35.5 8.109375 
Q 43.453125 8.109375 47.28125 11.40625 
Q 51.125 14.703125 51.125 21.484375 
Q 51.125 28.328125 47.28125 31.5625 
Q 43.453125 34.8125 35.5 34.8125 
z
M 19.671875 64.796875 
L 19.671875 42.828125 
L 34.28125 42.828125 
Q 41.5 42.828125 45.03125 45.53125 
Q 48.578125 48.25 48.578125 53.8125 
Q 48.578125 59.328125 45.03125 62.0625 
Q 41.5 64.796875 34.28125 64.796875 
z
M 9.8125 72.90625 
L 35.015625 72.90625 
Q 46.296875 72.90625 52.390625 68.21875 
Q 58.5 63.53125 58.5 54.890625 
Q 58.5 48.1875 55.375 44.234375 
Q 52.25 40.28125 46.1875 39.3125 
Q 53.46875 37.75 57.5 32.78125 
Q 61.53125 27.828125 61.53125 20.40625 
Q 61.53125 10.640625 54.890625 5.3125 
Q 48.25 0 35.984375 0 
L 9.8125 0 
z
" id="DejaVuSans-66"/>
       <path d="M 30.609375 48.390625 
Q 23.390625 48.390625 19.1875 42.75 
Q 14.984375 37.109375 14.984375 27.296875 
Q 14.984375 17.484375 19.15625 11.84375 
Q 23.34375 6.203125 30.609375 6.203125 
Q 37.796875 6.203125 41.984375 11.859375 
Q 46.1875 17.53125 46.1875 27.296875 
Q 46.1875 37.015625 41.984375 42.703125 
Q 37.796875 48.390625 30.609375 48.390625 
z
M 30.609375 56 
Q 42.328125 56 49.015625 48.375 
Q 55.71875 40.765625 55.71875 27.296875 
Q 55.71875 13.875 49.015625 6.21875 
Q 42.328125 -1.421875 30.609375 -1.421875 
Q 18.84375 -1.421875 12.171875 6.21875 
Q 5.515625 13.875 5.515625 27.296875 
Q 5.515625 40.765625 12.171875 48.375 
Q 18.84375 56 30.609375 56 
z
" id="DejaVuSans-111"/>
       <path d="M 54.890625 54.6875 
L 35.109375 28.078125 
L 55.90625 0 
L 45.3125 0 
L 29.390625 21.484375 
L 13.484375 0 
L 2.875 0 
L 24.125 28.609375 
L 4.6875 54.6875 
L 15.28125 54.6875 
L 29.78125 35.203125 
L 44.28125 54.6875 
z
" id="DejaVuSans-120"/>
       <path d="M 39.40625 66.21875 
Q 28.65625 66.21875 22.328125 58.203125 
Q 16.015625 50.203125 16.015625 36.375 
Q 16.015625 22.609375 22.328125 14.59375 
Q 28.65625 6.59375 39.40625 6.59375 
Q 50.140625 6.59375 56.421875 14.59375 
Q 62.703125 22.609375 62.703125 36.375 
Q 62.703125 50.203125 56.421875 58.203125 
Q 50.140625 66.21875 39.40625 66.21875 
z
M 39.40625 74.21875 
Q 54.734375 74.21875 63.90625 63.9375 
Q 73.09375 53.65625 73.09375 36.375 
Q 73.09375 19.140625 63.90625 8.859375 
Q 54.734375 -1.421875 39.40625 -1.421875 
Q 24.03125 -1.421875 14.8125 8.828125 
Q 5.609375 19.09375 5.609375 36.375 
Q 5.609375 53.65625 14.8125 63.9375 
Q 24.03125 74.21875 39.40625 74.21875 
z
" id="DejaVuSans-79"/>
       <path d="M 37.109375 75.984375 
L 37.109375 68.5 
L 28.515625 68.5 
Q 23.6875 68.5 21.796875 66.546875 
Q 19.921875 64.59375 19.921875 59.515625 
L 19.921875 54.6875 
L 34.71875 54.6875 
L 34.71875 47.703125 
L 19.921875 47.703125 
L 19.921875 0 
L 10.890625 0 
L 10.890625 47.703125 
L 2.296875 47.703125 
L 2.296875 54.6875 
L 10.890625 54.6875 
L 10.890625 58.5 
Q 10.890625 67.625 15.140625 71.796875 
Q 19.390625 75.984375 28.609375 75.984375 
z
" id="DejaVuSans-102"/>
       <path d="M 53.515625 70.515625 
L 53.515625 60.890625 
Q 47.90625 63.578125 42.921875 64.890625 
Q 37.9375 66.21875 33.296875 66.21875 
Q 25.25 66.21875 20.875 63.09375 
Q 16.5 59.96875 16.5 54.203125 
Q 16.5 49.359375 19.40625 46.890625 
Q 22.3125 44.4375 30.421875 42.921875 
L 36.375 41.703125 
Q 47.40625 39.59375 52.65625 34.296875 
Q 57.90625 29 57.90625 20.125 
Q 57.90625 9.515625 50.796875 4.046875 
Q 43.703125 -1.421875 29.984375 -1.421875 
Q 24.8125 -1.421875 18.96875 -0.25 
Q 13.140625 0.921875 6.890625 3.21875 
L 6.890625 13.375 
Q 12.890625 10.015625 18.65625 8.296875 
Q 24.421875 6.59375 29.984375 6.59375 
Q 38.421875 6.59375 43.015625 9.90625 
Q 47.609375 13.234375 47.609375 19.390625 
Q 47.609375 24.75 44.3125 27.78125 
Q 41.015625 30.8125 33.5 32.328125 
L 27.484375 33.5 
Q 16.453125 35.6875 11.515625 40.375 
Q 6.59375 45.0625 6.59375 53.421875 
Q 6.59375 63.09375 13.40625 68.65625 
Q 20.21875 74.21875 32.171875 74.21875 
Q 37.3125 74.21875 42.625 73.28125 
Q 47.953125 72.359375 53.515625 70.515625 
z
" id="DejaVuSans-83"/>
       <path d="M 14.796875 27.296875 
Q 14.796875 17.390625 18.875 11.75 
Q 22.953125 6.109375 30.078125 6.109375 
Q 37.203125 6.109375 41.296875 11.75 
Q 45.40625 17.390625 45.40625 27.296875 
Q 45.40625 37.203125 41.296875 42.84375 
Q 37.203125 48.484375 30.078125 48.484375 
Q 22.953125 48.484375 18.875 42.84375 
Q 14.796875 37.203125 14.796875 27.296875 
z
M 45.40625 8.203125 
Q 42.578125 3.328125 38.25 0.953125 
Q 33.9375 -1.421875 27.875 -1.421875 
Q 17.96875 -1.421875 11.734375 6.484375 
Q 5.515625 14.40625 5.515625 27.296875 
Q 5.515625 40.1875 11.734375 48.09375 
Q 17.96875 56 27.875 56 
Q 33.9375 56 38.25 53.625 
Q 42.578125 51.265625 45.40625 46.390625 
L 45.40625 54.6875 
L 54.390625 54.6875 
L 54.390625 -20.796875 
L 45.40625 -20.796875 
z
" id="DejaVuSans-113"/>
       <path d="M 8.5 21.578125 
L 8.5 54.6875 
L 17.484375 54.6875 
L 17.484375 21.921875 
Q 17.484375 14.15625 20.5 10.265625 
Q 23.53125 6.390625 29.59375 6.390625 
Q 36.859375 6.390625 41.078125 11.03125 
Q 45.3125 15.671875 45.3125 23.6875 
L 45.3125 54.6875 
L 54.296875 54.6875 
L 54.296875 0 
L 45.3125 0 
L 45.3125 8.40625 
Q 42.046875 3.421875 37.71875 1 
Q 33.40625 -1.421875 27.6875 -1.421875 
Q 18.265625 -1.421875 13.375 4.4375 
Q 8.5 10.296875 8.5 21.578125 
z
M 31.109375 56 
z
" id="DejaVuSans-117"/>
       <path d="M 9.421875 75.984375 
L 18.40625 75.984375 
L 18.40625 0 
L 9.421875 0 
z
" id="DejaVuSans-108"/>
       <path d="M 31 75.875 
Q 24.46875 64.65625 21.28125 53.65625 
Q 18.109375 42.671875 18.109375 31.390625 
Q 18.109375 20.125 21.3125 9.0625 
Q 24.515625 -2 31 -13.1875 
L 23.1875 -13.1875 
Q 15.875 -1.703125 12.234375 9.375 
Q 8.59375 20.453125 8.59375 31.390625 
Q 8.59375 42.28125 12.203125 53.3125 
Q 15.828125 64.359375 23.1875 75.875 
z
" id="DejaVuSans-40"/>
       <path d="M 8.6875 72.90625 
L 18.609375 72.90625 
L 18.609375 28.609375 
Q 18.609375 16.890625 22.84375 11.734375 
Q 27.09375 6.59375 36.625 6.59375 
Q 46.09375 6.59375 50.34375 11.734375 
Q 54.59375 16.890625 54.59375 28.609375 
L 54.59375 72.90625 
L 64.5 72.90625 
L 64.5 27.390625 
Q 64.5 13.140625 57.4375 5.859375 
Q 50.390625 -1.421875 36.625 -1.421875 
Q 22.796875 -1.421875 15.734375 5.859375 
Q 8.6875 13.140625 8.6875 27.390625 
z
" id="DejaVuSans-85"/>
       <path d="M 19.671875 64.796875 
L 19.671875 8.109375 
L 31.59375 8.109375 
Q 46.6875 8.109375 53.6875 14.9375 
Q 60.6875 21.78125 60.6875 36.53125 
Q 60.6875 51.171875 53.6875 57.984375 
Q 46.6875 64.796875 31.59375 64.796875 
z
M 9.8125 72.90625 
L 30.078125 72.90625 
Q 51.265625 72.90625 61.171875 64.09375 
Q 71.09375 55.28125 71.09375 36.53125 
Q 71.09375 17.671875 61.125 8.828125 
Q 51.171875 0 30.078125 0 
L 9.8125 0 
z
" id="DejaVuSans-68"/>
       <path d="M 8.015625 75.875 
L 15.828125 75.875 
Q 23.140625 64.359375 26.78125 53.3125 
Q 30.421875 42.28125 30.421875 31.390625 
Q 30.421875 20.453125 26.78125 9.375 
Q 23.140625 -1.703125 15.828125 -13.1875 
L 8.015625 -13.1875 
Q 14.5 -2 17.703125 9.0625 
Q 20.90625 20.125 20.90625 31.390625 
Q 20.90625 42.671875 17.703125 53.65625 
Q 14.5 64.65625 8.015625 75.875 
z
" id="DejaVuSans-41"/>
       <path d="M 11.71875 12.40625 
L 22.015625 12.40625 
L 22.015625 4 
L 14.015625 -11.625 
L 7.71875 -11.625 
L 11.71875 4 
z
" id="DejaVuSans-44"/>
       <path d="M 9.8125 72.90625 
L 24.515625 72.90625 
L 43.109375 23.296875 
L 61.8125 72.90625 
L 76.515625 72.90625 
L 76.515625 0 
L 66.890625 0 
L 66.890625 64.015625 
L 48.09375 14.015625 
L 38.1875 14.015625 
L 19.390625 64.015625 
L 19.390625 0 
L 9.8125 0 
z
" id="DejaVuSans-77"/>
       <path d="M 54.890625 33.015625 
L 54.890625 0 
L 45.90625 0 
L 45.90625 32.71875 
Q 45.90625 40.484375 42.875 44.328125 
Q 39.84375 48.1875 33.796875 48.1875 
Q 26.515625 48.1875 22.3125 43.546875 
Q 18.109375 38.921875 18.109375 30.90625 
L 18.109375 0 
L 9.078125 0 
L 9.078125 54.6875 
L 18.109375 54.6875 
L 18.109375 46.1875 
Q 21.34375 51.125 25.703125 53.5625 
Q 30.078125 56 35.796875 56 
Q 45.21875 56 50.046875 50.171875 
Q 54.890625 44.34375 54.890625 33.015625 
z
" id="DejaVuSans-110"/>
       <path d="M 44.28125 53.078125 
L 44.28125 44.578125 
Q 40.484375 46.53125 36.375 47.5 
Q 32.28125 48.484375 27.875 48.484375 
Q 21.1875 48.484375 17.84375 46.4375 
Q 14.5 44.390625 14.5 40.28125 
Q 14.5 37.15625 16.890625 35.375 
Q 19.28125 33.59375 26.515625 31.984375 
L 29.59375 31.296875 
Q 39.15625 29.25 43.1875 25.515625 
Q 47.21875 21.78125 47.21875 15.09375 
Q 47.21875 7.46875 41.1875 3.015625 
Q 35.15625 -1.421875 24.609375 -1.421875 
Q 20.21875 -1.421875 15.453125 -0.5625 
Q 10.6875 0.296875 5.421875 2 
L 5.421875 11.28125 
Q 10.40625 8.6875 15.234375 7.390625 
Q 20.0625 6.109375 24.8125 6.109375 
Q 31.15625 6.109375 34.5625 8.28125 
Q 37.984375 10.453125 37.984375 14.40625 
Q 37.984375 18.0625 35.515625 20.015625 
Q 33.0625 21.96875 24.703125 23.78125 
L 21.578125 24.515625 
Q 13.234375 26.265625 9.515625 29.90625 
Q 5.8125 33.546875 5.8125 39.890625 
Q 5.8125 47.609375 11.28125 51.796875 
Q 16.75 56 26.8125 56 
Q 31.78125 56 36.171875 55.265625 
Q 40.578125 54.546875 44.28125 53.078125 
z
" id="DejaVuSans-115"/>
      </defs>
      <use xlink:href="#DejaVuSans-80"/>
      <use x="58.552734" xlink:href="#DejaVuSans-114"/>
      <use x="97.416016" xlink:href="#DejaVuSans-101"/>
      <use x="158.939453" xlink:href="#DejaVuSans-100"/>
      <use x="222.416016" xlink:href="#DejaVuSans-105"/>
      <use x="250.199219" xlink:href="#DejaVuSans-99"/>
      <use x="305.179688" xlink:href="#DejaVuSans-116"/>
      <use x="344.388672" xlink:href="#DejaVuSans-101"/>
      <use x="405.912109" xlink:href="#DejaVuSans-100"/>
      <use x="469.388672" xlink:href="#DejaVuSans-32"/>
      <use x="501.175781" xlink:href="#DejaVuSans-66"/>
      <use x="569.779297" xlink:href="#DejaVuSans-111"/>
      <use x="627.835938" xlink:href="#DejaVuSans-120"/>
      <use x="687.015625" xlink:href="#DejaVuSans-32"/>
      <use x="718.802734" xlink:href="#DejaVuSans-79"/>
      <use x="797.513672" xlink:href="#DejaVuSans-102"/>
      <use x="832.71875" xlink:href="#DejaVuSans-102"/>
      <use x="867.923828" xlink:href="#DejaVuSans-105"/>
      <use x="895.707031" xlink:href="#DejaVuSans-99"/>
      <use x="950.6875" xlink:href="#DejaVuSans-101"/>
      <use x="1012.210938" xlink:href="#DejaVuSans-32"/>
      <use x="1043.998047" xlink:href="#DejaVuSans-83"/>
      <use x="1107.474609" xlink:href="#DejaVuSans-101"/>
      <use x="1168.998047" xlink:href="#DejaVuSans-113"/>
      <use x="1232.474609" xlink:href="#DejaVuSans-117"/>
      <use x="1295.853516" xlink:href="#DejaVuSans-101"/>
      <use x="1357.376953" xlink:href="#DejaVuSans-108"/>
      <use x="1385.160156" xlink:href="#DejaVuSans-32"/>
      <use x="1416.947266" xlink:href="#DejaVuSans-40"/>
      <use x="1455.960938" xlink:href="#DejaVuSans-85"/>
      <use x="1529.154297" xlink:href="#DejaVuSans-83"/>
      <use x="1592.630859" xlink:href="#DejaVuSans-68"/>
      <use x="1669.632812" xlink:href="#DejaVuSans-41"/>
      <use x="1708.646484" xlink:href="#DejaVuSans-44"/>
      <use x="1740.433594" xlink:href="#DejaVuSans-32"/>
      <use x="1772.220703" xlink:href="#DejaVuSans-77"/>
      <use x="1858.5" xlink:href="#DejaVuSans-105"/>
      <use x="1886.283203" xlink:href="#DejaVuSans-108"/>
      <use x="1914.066406" xlink:href="#DejaVuSans-108"/>
      <use x="1941.849609" xlink:href="#DejaVuSans-105"/>
      <use x="1969.632812" xlink:href="#DejaVuSans-111"/>
      <use x="2030.814453" xlink:href="#DejaVuSans-110"/>
      <use x="2094.193359" xlink:href="#DejaVuSans-115"/>
     </g>
    </g>
   </g>
   <g id="matplotlib.axis_2">
    <g id="ytick_1">
     <g id="line2d_6">
      <defs>
       <path d="M 0 0 
L -3.5 0 
" id="mb2f85d3ff5" style="stroke:#000000;stroke-width:0.8;"/>
      </defs>
      <g>
       <use style="stroke:#000000;stroke-width:0.8;" x="126" xlink:href="#mb2f85d3ff5" y="331.379581"/>
      </g>
     </g>
     <g id="text_7">
      <!-- 0 -->
      <g transform="translate(112.6375 335.1788)scale(0.1 -0.1)">
       <use xlink:href="#DejaVuSans-48"/>
      </g>
     </g>
    </g>
    <g id="ytick_2">
     <g id="line2d_7">
      <g>
       <use style="stroke:#000000;stroke-width:0.8;" x="126" xlink:href="#mb2f85d3ff5" y="260.366507"/>
      </g>
     </g>
     <g id="text_8">
      <!-- 200 -->
      <g transform="translate(99.9125 264.165725)scale(0.1 -0.1)">
       <use xlink:href="#DejaVuSans-50"/>
       <use x="63.623047" xlink:href="#DejaVuSans-48"/>
       <use x="127.246094" xlink:href="#DejaVuSans-48"/>
      </g>
     </g>
    </g>
    <g id="ytick_3">
     <g id="line2d_8">
      <g>
       <use style="stroke:#000000;stroke-width:0.8;" x="126" xlink:href="#mb2f85d3ff5" y="189.353432"/>
      </g>
     </g>
     <g id="text_9">
      <!-- 400 -->
      <g transform="translate(99.9125 193.152651)scale(0.1 -0.1)">
       <defs>
        <path d="M 37.796875 64.3125 
L 12.890625 25.390625 
L 37.796875 25.390625 
z
M 35.203125 72.90625 
L 47.609375 72.90625 
L 47.609375 25.390625 
L 58.015625 25.390625 
L 58.015625 17.1875 
L 47.609375 17.1875 
L 47.609375 0 
L 37.796875 0 
L 37.796875 17.1875 
L 4.890625 17.1875 
L 4.890625 26.703125 
z
" id="DejaVuSans-52"/>
       </defs>
       <use xlink:href="#DejaVuSans-52"/>
       <use x="63.623047" xlink:href="#DejaVuSans-48"/>
       <use x="127.246094" xlink:href="#DejaVuSans-48"/>
      </g>
     </g>
    </g>
    <g id="ytick_4">
     <g id="line2d_9">
      <g>
       <use style="stroke:#000000;stroke-width:0.8;" x="126" xlink:href="#mb2f85d3ff5" y="118.340357"/>
      </g>
     </g>
     <g id="text_10">
      <!-- 600 -->
      <g transform="translate(99.9125 122.139576)scale(0.1 -0.1)">
       <defs>
        <path d="M 33.015625 40.375 
Q 26.375 40.375 22.484375 35.828125 
Q 18.609375 31.296875 18.609375 23.390625 
Q 18.609375 15.53125 22.484375 10.953125 
Q 26.375 6.390625 33.015625 6.390625 
Q 39.65625 6.390625 43.53125 10.953125 
Q 47.40625 15.53125 47.40625 23.390625 
Q 47.40625 31.296875 43.53125 35.828125 
Q 39.65625 40.375 33.015625 40.375 
z
M 52.59375 71.296875 
L 52.59375 62.3125 
Q 48.875 64.0625 45.09375 64.984375 
Q 41.3125 65.921875 37.59375 65.921875 
Q 27.828125 65.921875 22.671875 59.328125 
Q 17.53125 52.734375 16.796875 39.40625 
Q 19.671875 43.65625 24.015625 45.921875 
Q 28.375 48.1875 33.59375 48.1875 
Q 44.578125 48.1875 50.953125 41.515625 
Q 57.328125 34.859375 57.328125 23.390625 
Q 57.328125 12.15625 50.6875 5.359375 
Q 44.046875 -1.421875 33.015625 -1.421875 
Q 20.359375 -1.421875 13.671875 8.265625 
Q 6.984375 17.96875 6.984375 36.375 
Q 6.984375 53.65625 15.1875 63.9375 
Q 23.390625 74.21875 37.203125 74.21875 
Q 40.921875 74.21875 44.703125 73.484375 
Q 48.484375 72.75 52.59375 71.296875 
z
" id="DejaVuSans-54"/>
       </defs>
       <use xlink:href="#DejaVuSans-54"/>
       <use x="63.623047" xlink:href="#DejaVuSans-48"/>
       <use x="127.246094" xlink:href="#DejaVuSans-48"/>
      </g>
     </g>
    </g>
    <g id="text_11">
     <!-- Percent Error (%) -->
     <g transform="translate(93.000937 274.872813)rotate(-90)scale(0.14 -0.14)">
      <defs>
       <path d="M 9.8125 72.90625 
L 55.90625 72.90625 
L 55.90625 64.59375 
L 19.671875 64.59375 
L 19.671875 43.015625 
L 54.390625 43.015625 
L 54.390625 34.71875 
L 19.671875 34.71875 
L 19.671875 8.296875 
L 56.78125 8.296875 
L 56.78125 0 
L 9.8125 0 
z
" id="DejaVuSans-69"/>
       <path d="M 72.703125 32.078125 
Q 68.453125 32.078125 66.03125 28.46875 
Q 63.625 24.859375 63.625 18.40625 
Q 63.625 12.0625 66.03125 8.421875 
Q 68.453125 4.78125 72.703125 4.78125 
Q 76.859375 4.78125 79.265625 8.421875 
Q 81.6875 12.0625 81.6875 18.40625 
Q 81.6875 24.8125 79.265625 28.4375 
Q 76.859375 32.078125 72.703125 32.078125 
z
M 72.703125 38.28125 
Q 80.421875 38.28125 84.953125 32.90625 
Q 89.5 27.546875 89.5 18.40625 
Q 89.5 9.28125 84.9375 3.921875 
Q 80.375 -1.421875 72.703125 -1.421875 
Q 64.890625 -1.421875 60.34375 3.921875 
Q 55.8125 9.28125 55.8125 18.40625 
Q 55.8125 27.59375 60.375 32.9375 
Q 64.9375 38.28125 72.703125 38.28125 
z
M 22.3125 68.015625 
Q 18.109375 68.015625 15.6875 64.375 
Q 13.28125 60.75 13.28125 54.390625 
Q 13.28125 47.953125 15.671875 44.328125 
Q 18.0625 40.71875 22.3125 40.71875 
Q 26.5625 40.71875 28.96875 44.328125 
Q 31.390625 47.953125 31.390625 54.390625 
Q 31.390625 60.6875 28.953125 64.34375 
Q 26.515625 68.015625 22.3125 68.015625 
z
M 66.40625 74.21875 
L 74.21875 74.21875 
L 28.609375 -1.421875 
L 20.796875 -1.421875 
z
M 22.3125 74.21875 
Q 30.03125 74.21875 34.609375 68.875 
Q 39.203125 63.53125 39.203125 54.390625 
Q 39.203125 45.171875 34.640625 39.84375 
Q 30.078125 34.515625 22.3125 34.515625 
Q 14.546875 34.515625 10.03125 39.859375 
Q 5.515625 45.21875 5.515625 54.390625 
Q 5.515625 63.484375 10.046875 68.84375 
Q 14.59375 74.21875 22.3125 74.21875 
z
" id="DejaVuSans-37"/>
      </defs>
      <use xlink:href="#DejaVuSans-80"/>
      <use x="56.677734" xlink:href="#DejaVuSans-101"/>
      <use x="118.201172" xlink:href="#DejaVuSans-114"/>
      <use x="157.064453" xlink:href="#DejaVuSans-99"/>
      <use x="212.044922" xlink:href="#DejaVuSans-101"/>
      <use x="273.568359" xlink:href="#DejaVuSans-110"/>
      <use x="336.947266" xlink:href="#DejaVuSans-116"/>
      <use x="376.15625" xlink:href="#DejaVuSans-32"/>
      <use x="407.943359" xlink:href="#DejaVuSans-69"/>
      <use x="471.126953" xlink:href="#DejaVuSans-114"/>
      <use x="510.490234" xlink:href="#DejaVuSans-114"/>
      <use x="549.353516" xlink:href="#DejaVuSans-111"/>
      <use x="610.535156" xlink:href="#DejaVuSans-114"/>
      <use x="651.648438" xlink:href="#DejaVuSans-32"/>
      <use x="683.435547" xlink:href="#DejaVuSans-40"/>
      <use x="722.449219" xlink:href="#DejaVuSans-37"/>
      <use x="817.46875" xlink:href="#DejaVuSans-41"/>
     </g>
    </g>
   </g>
   <g id="patch_3">
    <path d="M 126 378 
L 126 51.84 
" style="fill:none;stroke:#000000;stroke-linecap:square;stroke-linejoin:miter;stroke-width:0.8;"/>
   </g>
   <g id="patch_4">
    <path d="M 907.2 378 
L 907.2 51.84 
" style="fill:none;stroke:#000000;stroke-linecap:square;stroke-linejoin:miter;stroke-width:0.8;"/>
   </g>
   <g id="patch_5">
    <path d="M 126 378 
L 907.2 378 
" style="fill:none;stroke:#000000;stroke-linecap:square;stroke-linejoin:miter;stroke-width:0.8;"/>
   </g>
   <g id="patch_6">
    <path d="M 126 51.84 
L 907.2 51.84 
" style="fill:none;stroke:#000000;stroke-linecap:square;stroke-linejoin:miter;stroke-width:0.8;"/>
   </g>
   <g id="text_12">
    <!-- Percent Error vs Predicted Box Office Returns, Option 10 -->
    <g transform="translate(291.7375 45.84)scale(0.16 -0.16)">
     <defs>
      <path d="M 2.984375 54.6875 
L 12.5 54.6875 
L 29.59375 8.796875 
L 46.6875 54.6875 
L 56.203125 54.6875 
L 35.6875 0 
L 23.484375 0 
z
" id="DejaVuSans-118"/>
      <path d="M 44.390625 34.1875 
Q 47.5625 33.109375 50.5625 29.59375 
Q 53.5625 26.078125 56.59375 19.921875 
L 66.609375 0 
L 56 0 
L 46.6875 18.703125 
Q 43.0625 26.03125 39.671875 28.421875 
Q 36.28125 30.8125 30.421875 30.8125 
L 19.671875 30.8125 
L 19.671875 0 
L 9.8125 0 
L 9.8125 72.90625 
L 32.078125 72.90625 
Q 44.578125 72.90625 50.734375 67.671875 
Q 56.890625 62.453125 56.890625 51.90625 
Q 56.890625 45.015625 53.6875 40.46875 
Q 50.484375 35.9375 44.390625 34.1875 
z
M 19.671875 64.796875 
L 19.671875 38.921875 
L 32.078125 38.921875 
Q 39.203125 38.921875 42.84375 42.21875 
Q 46.484375 45.515625 46.484375 51.90625 
Q 46.484375 58.296875 42.84375 61.546875 
Q 39.203125 64.796875 32.078125 64.796875 
z
" id="DejaVuSans-82"/>
      <path d="M 18.109375 8.203125 
L 18.109375 -20.796875 
L 9.078125 -20.796875 
L 9.078125 54.6875 
L 18.109375 54.6875 
L 18.109375 46.390625 
Q 20.953125 51.265625 25.265625 53.625 
Q 29.59375 56 35.59375 56 
Q 45.5625 56 51.78125 48.09375 
Q 58.015625 40.1875 58.015625 27.296875 
Q 58.015625 14.40625 51.78125 6.484375 
Q 45.5625 -1.421875 35.59375 -1.421875 
Q 29.59375 -1.421875 25.265625 0.953125 
Q 20.953125 3.328125 18.109375 8.203125 
z
M 48.6875 27.296875 
Q 48.6875 37.203125 44.609375 42.84375 
Q 40.53125 48.484375 33.40625 48.484375 
Q 26.265625 48.484375 22.1875 42.84375 
Q 18.109375 37.203125 18.109375 27.296875 
Q 18.109375 17.390625 22.1875 11.75 
Q 26.265625 6.109375 33.40625 6.109375 
Q 40.53125 6.109375 44.609375 11.75 
Q 48.6875 17.390625 48.6875 27.296875 
z
" id="DejaVuSans-112"/>
     </defs>
     <use xlink:href="#DejaVuSans-80"/>
     <use x="56.677734" xlink:href="#DejaVuSans-101"/>
     <use x="118.201172" xlink:href="#DejaVuSans-114"/>
     <use x="157.064453" xlink:href="#DejaVuSans-99"/>
     <use x="212.044922" xlink:href="#DejaVuSans-101"/>
     <use x="273.568359" xlink:href="#DejaVuSans-110"/>
     <use x="336.947266" xlink:href="#DejaVuSans-116"/>
     <use x="376.15625" xlink:href="#DejaVuSans-32"/>
     <use x="407.943359" xlink:href="#DejaVuSans-69"/>
     <use x="471.126953" xlink:href="#DejaVuSans-114"/>
     <use x="510.490234" xlink:href="#DejaVuSans-114"/>
     <use x="549.353516" xlink:href="#DejaVuSans-111"/>
     <use x="610.535156" xlink:href="#DejaVuSans-114"/>
     <use x="651.648438" xlink:href="#DejaVuSans-32"/>
     <use x="683.435547" xlink:href="#DejaVuSans-118"/>
     <use x="742.615234" xlink:href="#DejaVuSans-115"/>
     <use x="794.714844" xlink:href="#DejaVuSans-32"/>
     <use x="826.501953" xlink:href="#DejaVuSans-80"/>
     <use x="885.054688" xlink:href="#DejaVuSans-114"/>
     <use x="923.917969" xlink:href="#DejaVuSans-101"/>
     <use x="985.441406" xlink:href="#DejaVuSans-100"/>
     <use x="1048.917969" xlink:href="#DejaVuSans-105"/>
     <use x="1076.701172" xlink:href="#DejaVuSans-99"/>
     <use x="1131.681641" xlink:href="#DejaVuSans-116"/>
     <use x="1170.890625" xlink:href="#DejaVuSans-101"/>
     <use x="1232.414062" xlink:href="#DejaVuSans-100"/>
     <use x="1295.890625" xlink:href="#DejaVuSans-32"/>
     <use x="1327.677734" xlink:href="#DejaVuSans-66"/>
     <use x="1396.28125" xlink:href="#DejaVuSans-111"/>
     <use x="1454.337891" xlink:href="#DejaVuSans-120"/>
     <use x="1513.517578" xlink:href="#DejaVuSans-32"/>
     <use x="1545.304688" xlink:href="#DejaVuSans-79"/>
     <use x="1624.015625" xlink:href="#DejaVuSans-102"/>
     <use x="1659.220703" xlink:href="#DejaVuSans-102"/>
     <use x="1694.425781" xlink:href="#DejaVuSans-105"/>
     <use x="1722.208984" xlink:href="#DejaVuSans-99"/>
     <use x="1777.189453" xlink:href="#DejaVuSans-101"/>
     <use x="1838.712891" xlink:href="#DejaVuSans-32"/>
     <use x="1870.5" xlink:href="#DejaVuSans-82"/>
     <use x="1935.482422" xlink:href="#DejaVuSans-101"/>
     <use x="1997.005859" xlink:href="#DejaVuSans-116"/>
     <use x="2036.214844" xlink:href="#DejaVuSans-117"/>
     <use x="2099.59375" xlink:href="#DejaVuSans-114"/>
     <use x="2138.957031" xlink:href="#DejaVuSans-110"/>
     <use x="2202.335938" xlink:href="#DejaVuSans-115"/>
     <use x="2254.435547" xlink:href="#DejaVuSans-44"/>
     <use x="2286.222656" xlink:href="#DejaVuSans-32"/>
     <use x="2318.009766" xlink:href="#DejaVuSans-79"/>
     <use x="2396.720703" xlink:href="#DejaVuSans-112"/>
     <use x="2460.197266" xlink:href="#DejaVuSans-116"/>
     <use x="2499.40625" xlink:href="#DejaVuSans-105"/>
     <use x="2527.189453" xlink:href="#DejaVuSans-111"/>
     <use x="2588.371094" xlink:href="#DejaVuSans-110"/>
     <use x="2651.75" xlink:href="#DejaVuSans-32"/>
     <use x="2683.537109" xlink:href="#DejaVuSans-49"/>
     <use x="2747.160156" xlink:href="#DejaVuSans-48"/>
    </g>
   </g>
  </g>
 </g>
 <defs>
  <clipPath id="pbaf3f741c2">
   <rect height="326.16" width="781.2" x="126" y="51.84"/>
  </clipPath>
 </defs>
</svg>
