<?xml version="1.0" encoding="utf-8" standalone="no"?>
<!DOCTYPE svg PUBLIC "-//W3C//DTD SVG 1.1//EN"
  "http://www.w3.org/Graphics/SVG/1.1/DTD/svg11.dtd">
<!-- Created with matplotlib (https://matplotlib.org/) -->
<svg height="432pt" version="1.1" viewBox="0 0 1008 432" width="1008pt" xmlns="http://www.w3.org/2000/svg" xmlns:xlink="http://www.w3.org/1999/xlink">
 <metadata>
  <rdf:RDF xmlns:cc="http://creativecommons.org/ns#" xmlns:dc="http://purl.org/dc/elements/1.1/" xmlns:rdf="http://www.w3.org/1999/02/22-rdf-syntax-ns#">
   <cc:Work>
    <dc:type rdf:resource="http://purl.org/dc/dcmitype/StillImage"/>
    <dc:date>2020-11-01T21:44:29.157142</dc:date>
    <dc:format>image/svg+xml</dc:format>
    <dc:creator>
     <cc:Agent>
      <dc:title>Matplotlib v3.3.0, https://matplotlib.org/</dc:title>
     </cc:Agent>
    </dc:creator>
   </cc:Work>
  </rdf:RDF>
 </metadata>
 <defs>
  <style type="text/css">*{stroke-linecap:butt;stroke-linejoin:round;}</style>
 </defs>
 <g id="figure_1">
  <g id="patch_1">
   <path d="M 0 432 
L 1008 432 
L 1008 0 
L 0 0 
z
" style="fill:none;"/>
  </g>
  <g id="axes_1">
   <g id="patch_2">
    <path d="M 126 378 
L 907.2 378 
L 907.2 51.84 
L 126 51.84 
z
" style="fill:#ffffff;"/>
   </g>
   <g id="PathCollection_1">
    <defs>
     <path d="M 0 3 
C 0.795609 3 1.55874 2.683901 2.12132 2.12132 
C 2.683901 1.55874 3 0.795609 3 0 
C 3 -0.795609 2.683901 -1.55874 2.12132 -2.12132 
C 1.55874 -2.683901 0.795609 -3 0 -3 
C -0.795609 -3 -1.55874 -2.683901 -2.12132 -2.12132 
C -2.683901 -1.55874 -3 -0.795609 -3 0 
C -3 0.795609 -2.683901 1.55874 -2.12132 2.12132 
C -1.55874 2.683901 -0.795609 3 0 3 
z
" id="md73e94cf64" style="stroke:#ff0000;"/>
    </defs>
    <g clip-path="url(#pc0b9ea38aa)">
     <use style="fill:#ff0000;stroke:#ff0000;" x="291.339223" xlink:href="#md73e94cf64" y="356.568531"/>
     <use style="fill:#ff0000;stroke:#ff0000;" x="519.366108" xlink:href="#md73e94cf64" y="328.226065"/>
     <use style="fill:#ff0000;stroke:#ff0000;" x="493.951379" xlink:href="#md73e94cf64" y="327.92661"/>
     <use style="fill:#ff0000;stroke:#ff0000;" x="548.777659" xlink:href="#md73e94cf64" y="327.706584"/>
     <use style="fill:#ff0000;stroke:#ff0000;" x="757.845773" xlink:href="#md73e94cf64" y="320.971012"/>
     <use style="fill:#ff0000;stroke:#ff0000;" x="333.117543" xlink:href="#md73e94cf64" y="350.604065"/>
     <use style="fill:#ff0000;stroke:#ff0000;" x="174.598582" xlink:href="#md73e94cf64" y="340.520611"/>
     <use style="fill:#ff0000;stroke:#ff0000;" x="561.947229" xlink:href="#md73e94cf64" y="331.350318"/>
     <use style="fill:#ff0000;stroke:#ff0000;" x="264.447075" xlink:href="#md73e94cf64" y="261.592032"/>
     <use style="fill:#ff0000;stroke:#ff0000;" x="291.706584" xlink:href="#md73e94cf64" y="314.370342"/>
     <use style="fill:#ff0000;stroke:#ff0000;" x="167.486363" xlink:href="#md73e94cf64" y="274.543554"/>
     <use style="fill:#ff0000;stroke:#ff0000;" x="311.572628" xlink:href="#md73e94cf64" y="348.867573"/>
     <use style="fill:#ff0000;stroke:#ff0000;" x="180.442306" xlink:href="#md73e94cf64" y="357.5489"/>
     <use style="fill:#ff0000;stroke:#ff0000;" x="322.651412" xlink:href="#md73e94cf64" y="323.858413"/>
     <use style="fill:#ff0000;stroke:#ff0000;" x="391.607889" xlink:href="#md73e94cf64" y="338.69812"/>
     <use style="fill:#ff0000;stroke:#ff0000;" x="218.458712" xlink:href="#md73e94cf64" y="353.286496"/>
     <use style="fill:#ff0000;stroke:#ff0000;" x="224.875737" xlink:href="#md73e94cf64" y="363.174545"/>
     <use style="fill:#ff0000;stroke:#ff0000;" x="449.25308" xlink:href="#md73e94cf64" y="324.026084"/>
     <use style="fill:#ff0000;stroke:#ff0000;" x="566.702232" xlink:href="#md73e94cf64" y="320.178361"/>
     <use style="fill:#ff0000;stroke:#ff0000;" x="166.969305" xlink:href="#md73e94cf64" y="328.962171"/>
     <use style="fill:#ff0000;stroke:#ff0000;" x="241.564135" xlink:href="#md73e94cf64" y="325.777788"/>
     <use style="fill:#ff0000;stroke:#ff0000;" x="165.889791" xlink:href="#md73e94cf64" y="236.204959"/>
     <use style="fill:#ff0000;stroke:#ff0000;" x="240.69601" xlink:href="#md73e94cf64" y="252.935324"/>
     <use style="fill:#ff0000;stroke:#ff0000;" x="416.26702" xlink:href="#md73e94cf64" y="350.358643"/>
     <use style="fill:#ff0000;stroke:#ff0000;" x="203.559206" xlink:href="#md73e94cf64" y="318.438636"/>
     <use style="fill:#ff0000;stroke:#ff0000;" x="174.622322" xlink:href="#md73e94cf64" y="304.336244"/>
     <use style="fill:#ff0000;stroke:#ff0000;" x="215.020948" xlink:href="#md73e94cf64" y="326.258022"/>
     <use style="fill:#ff0000;stroke:#ff0000;" x="325.603669" xlink:href="#md73e94cf64" y="356.28381"/>
     <use style="fill:#ff0000;stroke:#ff0000;" x="714.107999" xlink:href="#md73e94cf64" y="332.520407"/>
     <use style="fill:#ff0000;stroke:#ff0000;" x="177.784046" xlink:href="#md73e94cf64" y="327.716967"/>
     <use style="fill:#ff0000;stroke:#ff0000;" x="198.361045" xlink:href="#md73e94cf64" y="349.891112"/>
     <use style="fill:#ff0000;stroke:#ff0000;" x="722.276321" xlink:href="#md73e94cf64" y="335.968342"/>
     <use style="fill:#ff0000;stroke:#ff0000;" x="243.975425" xlink:href="#md73e94cf64" y="333.864421"/>
     <use style="fill:#ff0000;stroke:#ff0000;" x="196.718121" xlink:href="#md73e94cf64" y="284.412484"/>
     <use style="fill:#ff0000;stroke:#ff0000;" x="191.406365" xlink:href="#md73e94cf64" y="308.486111"/>
     <use style="fill:#ff0000;stroke:#ff0000;" x="412.0296" xlink:href="#md73e94cf64" y="341.922906"/>
     <use style="fill:#ff0000;stroke:#ff0000;" x="860.359013" xlink:href="#md73e94cf64" y="336.080675"/>
     <use style="fill:#ff0000;stroke:#ff0000;" x="255.349854" xlink:href="#md73e94cf64" y="326.227234"/>
     <use style="fill:#ff0000;stroke:#ff0000;" x="196.17267" xlink:href="#md73e94cf64" y="359.866045"/>
     <use style="fill:#ff0000;stroke:#ff0000;" x="178.461449" xlink:href="#md73e94cf64" y="334.285761"/>
     <use style="fill:#ff0000;stroke:#ff0000;" x="193.183656" xlink:href="#md73e94cf64" y="260.089827"/>
     <use style="fill:#ff0000;stroke:#ff0000;" x="223.783494" xlink:href="#md73e94cf64" y="343.844428"/>
     <use style="fill:#ff0000;stroke:#ff0000;" x="325.528777" xlink:href="#md73e94cf64" y="336.585831"/>
     <use style="fill:#ff0000;stroke:#ff0000;" x="213.423448" xlink:href="#md73e94cf64" y="332.25653"/>
     <use style="fill:#ff0000;stroke:#ff0000;" x="177.113395" xlink:href="#md73e94cf64" y="303.343931"/>
     <use style="fill:#ff0000;stroke:#ff0000;" x="180.367263" xlink:href="#md73e94cf64" y="295.763785"/>
     <use style="fill:#ff0000;stroke:#ff0000;" x="335.895274" xlink:href="#md73e94cf64" y="321.36542"/>
     <use style="fill:#ff0000;stroke:#ff0000;" x="342.028074" xlink:href="#md73e94cf64" y="353.252597"/>
     <use style="fill:#ff0000;stroke:#ff0000;" x="561.57615" xlink:href="#md73e94cf64" y="326.376053"/>
     <use style="fill:#ff0000;stroke:#ff0000;" x="228.835307" xlink:href="#md73e94cf64" y="341.918745"/>
     <use style="fill:#ff0000;stroke:#ff0000;" x="363.294386" xlink:href="#md73e94cf64" y="290.66476"/>
     <use style="fill:#ff0000;stroke:#ff0000;" x="202.65184" xlink:href="#md73e94cf64" y="335.687896"/>
     <use style="fill:#ff0000;stroke:#ff0000;" x="176.054272" xlink:href="#md73e94cf64" y="277.016169"/>
     <use style="fill:#ff0000;stroke:#ff0000;" x="212.979314" xlink:href="#md73e94cf64" y="324.936176"/>
     <use style="fill:#ff0000;stroke:#ff0000;" x="294.907818" xlink:href="#md73e94cf64" y="329.577388"/>
     <use style="fill:#ff0000;stroke:#ff0000;" x="656.404606" xlink:href="#md73e94cf64" y="332.640651"/>
     <use style="fill:#ff0000;stroke:#ff0000;" x="283.599337" xlink:href="#md73e94cf64" y="310.477213"/>
     <use style="fill:#ff0000;stroke:#ff0000;" x="484.348623" xlink:href="#md73e94cf64" y="343.393034"/>
     <use style="fill:#ff0000;stroke:#ff0000;" x="477.969825" xlink:href="#md73e94cf64" y="322.676488"/>
     <use style="fill:#ff0000;stroke:#ff0000;" x="792.800002" xlink:href="#md73e94cf64" y="326.768052"/>
     <use style="fill:#ff0000;stroke:#ff0000;" x="326.600963" xlink:href="#md73e94cf64" y="331.49999"/>
     <use style="fill:#ff0000;stroke:#ff0000;" x="217.403642" xlink:href="#md73e94cf64" y="322.621952"/>
     <use style="fill:#ff0000;stroke:#ff0000;" x="174.755543" xlink:href="#md73e94cf64" y="356.955279"/>
     <use style="fill:#ff0000;stroke:#ff0000;" x="364.783403" xlink:href="#md73e94cf64" y="324.770054"/>
     <use style="fill:#ff0000;stroke:#ff0000;" x="760.749387" xlink:href="#md73e94cf64" y="331.961023"/>
     <use style="fill:#ff0000;stroke:#ff0000;" x="179.538636" xlink:href="#md73e94cf64" y="358.018627"/>
     <use style="fill:#ff0000;stroke:#ff0000;" x="190.253521" xlink:href="#md73e94cf64" y="253.25555"/>
     <use style="fill:#ff0000;stroke:#ff0000;" x="225.547661" xlink:href="#md73e94cf64" y="338.184109"/>
     <use style="fill:#ff0000;stroke:#ff0000;" x="213.70719" xlink:href="#md73e94cf64" y="332.065662"/>
     <use style="fill:#ff0000;stroke:#ff0000;" x="318.284239" xlink:href="#md73e94cf64" y="66.665455"/>
     <use style="fill:#ff0000;stroke:#ff0000;" x="368.087248" xlink:href="#md73e94cf64" y="340.132323"/>
     <use style="fill:#ff0000;stroke:#ff0000;" x="260.192426" xlink:href="#md73e94cf64" y="349.038498"/>
     <use style="fill:#ff0000;stroke:#ff0000;" x="394.260349" xlink:href="#md73e94cf64" y="332.411079"/>
     <use style="fill:#ff0000;stroke:#ff0000;" x="176.286571" xlink:href="#md73e94cf64" y="275.687929"/>
     <use style="fill:#ff0000;stroke:#ff0000;" x="871.690909" xlink:href="#md73e94cf64" y="317.253608"/>
     <use style="fill:#ff0000;stroke:#ff0000;" x="180.837417" xlink:href="#md73e94cf64" y="331.66684"/>
     <use style="fill:#ff0000;stroke:#ff0000;" x="217.450593" xlink:href="#md73e94cf64" y="341.8879"/>
     <use style="fill:#ff0000;stroke:#ff0000;" x="196.871696" xlink:href="#md73e94cf64" y="300.328968"/>
     <use style="fill:#ff0000;stroke:#ff0000;" x="242.755741" xlink:href="#md73e94cf64" y="320.863115"/>
     <use style="fill:#ff0000;stroke:#ff0000;" x="207.363165" xlink:href="#md73e94cf64" y="341.720063"/>
     <use style="fill:#ff0000;stroke:#ff0000;" x="184.257886" xlink:href="#md73e94cf64" y="343.019963"/>
     <use style="fill:#ff0000;stroke:#ff0000;" x="175.724613" xlink:href="#md73e94cf64" y="323.506127"/>
     <use style="fill:#ff0000;stroke:#ff0000;" x="197.448328" xlink:href="#md73e94cf64" y="335.774515"/>
     <use style="fill:#ff0000;stroke:#ff0000;" x="240.130218" xlink:href="#md73e94cf64" y="297.731428"/>
     <use style="fill:#ff0000;stroke:#ff0000;" x="200.78319" xlink:href="#md73e94cf64" y="349.511967"/>
     <use style="fill:#ff0000;stroke:#ff0000;" x="220.372124" xlink:href="#md73e94cf64" y="322.17843"/>
     <use style="fill:#ff0000;stroke:#ff0000;" x="202.370345" xlink:href="#md73e94cf64" y="330.947321"/>
     <use style="fill:#ff0000;stroke:#ff0000;" x="258.345034" xlink:href="#md73e94cf64" y="340.030317"/>
     <use style="fill:#ff0000;stroke:#ff0000;" x="192.630177" xlink:href="#md73e94cf64" y="349.523896"/>
     <use style="fill:#ff0000;stroke:#ff0000;" x="257.914814" xlink:href="#md73e94cf64" y="340.153313"/>
     <use style="fill:#ff0000;stroke:#ff0000;" x="425.21299" xlink:href="#md73e94cf64" y="342.848928"/>
     <use style="fill:#ff0000;stroke:#ff0000;" x="210.071817" xlink:href="#md73e94cf64" y="345.263128"/>
     <use style="fill:#ff0000;stroke:#ff0000;" x="284.888484" xlink:href="#md73e94cf64" y="330.56448"/>
     <use style="fill:#ff0000;stroke:#ff0000;" x="227.742459" xlink:href="#md73e94cf64" y="224.912061"/>
     <use style="fill:#ff0000;stroke:#ff0000;" x="257.407553" xlink:href="#md73e94cf64" y="328.37855"/>
     <use style="fill:#ff0000;stroke:#ff0000;" x="671.247226" xlink:href="#md73e94cf64" y="327.800707"/>
     <use style="fill:#ff0000;stroke:#ff0000;" x="245.235572" xlink:href="#md73e94cf64" y="319.445197"/>
     <use style="fill:#ff0000;stroke:#ff0000;" x="254.139857" xlink:href="#md73e94cf64" y="332.272992"/>
     <use style="fill:#ff0000;stroke:#ff0000;" x="173.106043" xlink:href="#md73e94cf64" y="293.873546"/>
     <use style="fill:#ff0000;stroke:#ff0000;" x="161.509091" xlink:href="#md73e94cf64" y="356.784598"/>
     <use style="fill:#ff0000;stroke:#ff0000;" x="281.71284" xlink:href="#md73e94cf64" y="337.212083"/>
     <use style="fill:#ff0000;stroke:#ff0000;" x="332.186085" xlink:href="#md73e94cf64" y="335.316993"/>
     <use style="fill:#ff0000;stroke:#ff0000;" x="303.243131" xlink:href="#md73e94cf64" y="327.194406"/>
     <use style="fill:#ff0000;stroke:#ff0000;" x="195.226734" xlink:href="#md73e94cf64" y="234.298332"/>
     <use style="fill:#ff0000;stroke:#ff0000;" x="206.757733" xlink:href="#md73e94cf64" y="332.557674"/>
     <use style="fill:#ff0000;stroke:#ff0000;" x="382.148537" xlink:href="#md73e94cf64" y="325.794487"/>
     <use style="fill:#ff0000;stroke:#ff0000;" x="222.321848" xlink:href="#md73e94cf64" y="327.466177"/>
    </g>
   </g>
   <g id="matplotlib.axis_1">
    <g id="xtick_1">
     <g id="line2d_1">
      <path clip-path="url(#pc0b9ea38aa)" d="M 160.122439 378 
L 160.122439 51.84 
" style="fill:none;stroke:#b0b0b0;stroke-linecap:square;stroke-width:0.8;"/>
     </g>
     <g id="line2d_2">
      <defs>
       <path d="M 0 0 
L 0 3.5 
" id="m3224b7995d" style="stroke:#000000;stroke-width:0.8;"/>
      </defs>
      <g>
       <use style="stroke:#000000;stroke-width:0.8;" x="160.122439" xlink:href="#m3224b7995d" y="378"/>
      </g>
     </g>
     <g id="text_1">
      <!-- 0 -->
      <g transform="translate(156.304939 394.118125)scale(0.12 -0.12)">
       <defs>
        <path d="M 31.78125 66.40625 
Q 24.171875 66.40625 20.328125 58.90625 
Q 16.5 51.421875 16.5 36.375 
Q 16.5 21.390625 20.328125 13.890625 
Q 24.171875 6.390625 31.78125 6.390625 
Q 39.453125 6.390625 43.28125 13.890625 
Q 47.125 21.390625 47.125 36.375 
Q 47.125 51.421875 43.28125 58.90625 
Q 39.453125 66.40625 31.78125 66.40625 
z
M 31.78125 74.21875 
Q 44.046875 74.21875 50.515625 64.515625 
Q 56.984375 54.828125 56.984375 36.375 
Q 56.984375 17.96875 50.515625 8.265625 
Q 44.046875 -1.421875 31.78125 -1.421875 
Q 19.53125 -1.421875 13.0625 8.265625 
Q 6.59375 17.96875 6.59375 36.375 
Q 6.59375 54.828125 13.0625 64.515625 
Q 19.53125 74.21875 31.78125 74.21875 
z
" id="DejaVuSans-48"/>
       </defs>
       <use xlink:href="#DejaVuSans-48"/>
      </g>
     </g>
    </g>
    <g id="xtick_2">
     <g id="line2d_3">
      <path clip-path="url(#pc0b9ea38aa)" d="M 320.341148 378 
L 320.341148 51.84 
" style="fill:none;stroke:#b0b0b0;stroke-linecap:square;stroke-width:0.8;"/>
     </g>
     <g id="line2d_4">
      <g>
       <use style="stroke:#000000;stroke-width:0.8;" x="320.341148" xlink:href="#m3224b7995d" y="378"/>
      </g>
     </g>
     <g id="text_2">
      <!-- 50 -->
      <g transform="translate(312.706148 394.118125)scale(0.12 -0.12)">
       <defs>
        <path d="M 10.796875 72.90625 
L 49.515625 72.90625 
L 49.515625 64.59375 
L 19.828125 64.59375 
L 19.828125 46.734375 
Q 21.96875 47.46875 24.109375 47.828125 
Q 26.265625 48.1875 28.421875 48.1875 
Q 40.625 48.1875 47.75 41.5 
Q 54.890625 34.8125 54.890625 23.390625 
Q 54.890625 11.625 47.5625 5.09375 
Q 40.234375 -1.421875 26.90625 -1.421875 
Q 22.3125 -1.421875 17.546875 -0.640625 
Q 12.796875 0.140625 7.71875 1.703125 
L 7.71875 11.625 
Q 12.109375 9.234375 16.796875 8.0625 
Q 21.484375 6.890625 26.703125 6.890625 
Q 35.15625 6.890625 40.078125 11.328125 
Q 45.015625 15.765625 45.015625 23.390625 
Q 45.015625 31 40.078125 35.4375 
Q 35.15625 39.890625 26.703125 39.890625 
Q 22.75 39.890625 18.8125 39.015625 
Q 14.890625 38.140625 10.796875 36.28125 
z
" id="DejaVuSans-53"/>
       </defs>
       <use xlink:href="#DejaVuSans-53"/>
       <use x="63.623047" xlink:href="#DejaVuSans-48"/>
      </g>
     </g>
    </g>
    <g id="xtick_3">
     <g id="line2d_5">
      <path clip-path="url(#pc0b9ea38aa)" d="M 480.559858 378 
L 480.559858 51.84 
" style="fill:none;stroke:#b0b0b0;stroke-linecap:square;stroke-width:0.8;"/>
     </g>
     <g id="line2d_6">
      <g>
       <use style="stroke:#000000;stroke-width:0.8;" x="480.559858" xlink:href="#m3224b7995d" y="378"/>
      </g>
     </g>
     <g id="text_3">
      <!-- 100 -->
      <g transform="translate(469.107358 394.118125)scale(0.12 -0.12)">
       <defs>
        <path d="M 12.40625 8.296875 
L 28.515625 8.296875 
L 28.515625 63.921875 
L 10.984375 60.40625 
L 10.984375 69.390625 
L 28.421875 72.90625 
L 38.28125 72.90625 
L 38.28125 8.296875 
L 54.390625 8.296875 
L 54.390625 0 
L 12.40625 0 
z
" id="DejaVuSans-49"/>
       </defs>
       <use xlink:href="#DejaVuSans-49"/>
       <use x="63.623047" xlink:href="#DejaVuSans-48"/>
       <use x="127.246094" xlink:href="#DejaVuSans-48"/>
      </g>
     </g>
    </g>
    <g id="xtick_4">
     <g id="line2d_7">
      <path clip-path="url(#pc0b9ea38aa)" d="M 640.778567 378 
L 640.778567 51.84 
" style="fill:none;stroke:#b0b0b0;stroke-linecap:square;stroke-width:0.8;"/>
     </g>
     <g id="line2d_8">
      <g>
       <use style="stroke:#000000;stroke-width:0.8;" x="640.778567" xlink:href="#m3224b7995d" y="378"/>
      </g>
     </g>
     <g id="text_4">
      <!-- 150 -->
      <g transform="translate(629.326067 394.118125)scale(0.12 -0.12)">
       <use xlink:href="#DejaVuSans-49"/>
       <use x="63.623047" xlink:href="#DejaVuSans-53"/>
       <use x="127.246094" xlink:href="#DejaVuSans-48"/>
      </g>
     </g>
    </g>
    <g id="xtick_5">
     <g id="line2d_9">
      <path clip-path="url(#pc0b9ea38aa)" d="M 800.997277 378 
L 800.997277 51.84 
" style="fill:none;stroke:#b0b0b0;stroke-linecap:square;stroke-width:0.8;"/>
     </g>
     <g id="line2d_10">
      <g>
       <use style="stroke:#000000;stroke-width:0.8;" x="800.997277" xlink:href="#m3224b7995d" y="378"/>
      </g>
     </g>
     <g id="text_5">
      <!-- 200 -->
      <g transform="translate(789.544777 394.118125)scale(0.12 -0.12)">
       <defs>
        <path d="M 19.1875 8.296875 
L 53.609375 8.296875 
L 53.609375 0 
L 7.328125 0 
L 7.328125 8.296875 
Q 12.9375 14.109375 22.625 23.890625 
Q 32.328125 33.6875 34.8125 36.53125 
Q 39.546875 41.84375 41.421875 45.53125 
Q 43.3125 49.21875 43.3125 52.78125 
Q 43.3125 58.59375 39.234375 62.25 
Q 35.15625 65.921875 28.609375 65.921875 
Q 23.96875 65.921875 18.8125 64.3125 
Q 13.671875 62.703125 7.8125 59.421875 
L 7.8125 69.390625 
Q 13.765625 71.78125 18.9375 73 
Q 24.125 74.21875 28.421875 74.21875 
Q 39.75 74.21875 46.484375 68.546875 
Q 53.21875 62.890625 53.21875 53.421875 
Q 53.21875 48.921875 51.53125 44.890625 
Q 49.859375 40.875 45.40625 35.40625 
Q 44.1875 33.984375 37.640625 27.21875 
Q 31.109375 20.453125 19.1875 8.296875 
z
" id="DejaVuSans-50"/>
       </defs>
       <use xlink:href="#DejaVuSans-50"/>
       <use x="63.623047" xlink:href="#DejaVuSans-48"/>
       <use x="127.246094" xlink:href="#DejaVuSans-48"/>
      </g>
     </g>
    </g>
    <g id="text_6">
     <!-- Predicted Box Office Sequel (USD), Millions -->
     <g transform="translate(366.357031 411.251562)scale(0.14 -0.14)">
      <defs>
       <path d="M 19.671875 64.796875 
L 19.671875 37.40625 
L 32.078125 37.40625 
Q 38.96875 37.40625 42.71875 40.96875 
Q 46.484375 44.53125 46.484375 51.125 
Q 46.484375 57.671875 42.71875 61.234375 
Q 38.96875 64.796875 32.078125 64.796875 
z
M 9.8125 72.90625 
L 32.078125 72.90625 
Q 44.34375 72.90625 50.609375 67.359375 
Q 56.890625 61.8125 56.890625 51.125 
Q 56.890625 40.328125 50.609375 34.8125 
Q 44.34375 29.296875 32.078125 29.296875 
L 19.671875 29.296875 
L 19.671875 0 
L 9.8125 0 
z
" id="DejaVuSans-80"/>
       <path d="M 41.109375 46.296875 
Q 39.59375 47.171875 37.8125 47.578125 
Q 36.03125 48 33.890625 48 
Q 26.265625 48 22.1875 43.046875 
Q 18.109375 38.09375 18.109375 28.8125 
L 18.109375 0 
L 9.078125 0 
L 9.078125 54.6875 
L 18.109375 54.6875 
L 18.109375 46.1875 
Q 20.953125 51.171875 25.484375 53.578125 
Q 30.03125 56 36.53125 56 
Q 37.453125 56 38.578125 55.875 
Q 39.703125 55.765625 41.0625 55.515625 
z
" id="DejaVuSans-114"/>
       <path d="M 56.203125 29.59375 
L 56.203125 25.203125 
L 14.890625 25.203125 
Q 15.484375 15.921875 20.484375 11.0625 
Q 25.484375 6.203125 34.421875 6.203125 
Q 39.59375 6.203125 44.453125 7.46875 
Q 49.3125 8.734375 54.109375 11.28125 
L 54.109375 2.78125 
Q 49.265625 0.734375 44.1875 -0.34375 
Q 39.109375 -1.421875 33.890625 -1.421875 
Q 20.796875 -1.421875 13.15625 6.1875 
Q 5.515625 13.8125 5.515625 26.8125 
Q 5.515625 40.234375 12.765625 48.109375 
Q 20.015625 56 32.328125 56 
Q 43.359375 56 49.78125 48.890625 
Q 56.203125 41.796875 56.203125 29.59375 
z
M 47.21875 32.234375 
Q 47.125 39.59375 43.09375 43.984375 
Q 39.0625 48.390625 32.421875 48.390625 
Q 24.90625 48.390625 20.390625 44.140625 
Q 15.875 39.890625 15.1875 32.171875 
z
" id="DejaVuSans-101"/>
       <path d="M 45.40625 46.390625 
L 45.40625 75.984375 
L 54.390625 75.984375 
L 54.390625 0 
L 45.40625 0 
L 45.40625 8.203125 
Q 42.578125 3.328125 38.25 0.953125 
Q 33.9375 -1.421875 27.875 -1.421875 
Q 17.96875 -1.421875 11.734375 6.484375 
Q 5.515625 14.40625 5.515625 27.296875 
Q 5.515625 40.1875 11.734375 48.09375 
Q 17.96875 56 27.875 56 
Q 33.9375 56 38.25 53.625 
Q 42.578125 51.265625 45.40625 46.390625 
z
M 14.796875 27.296875 
Q 14.796875 17.390625 18.875 11.75 
Q 22.953125 6.109375 30.078125 6.109375 
Q 37.203125 6.109375 41.296875 11.75 
Q 45.40625 17.390625 45.40625 27.296875 
Q 45.40625 37.203125 41.296875 42.84375 
Q 37.203125 48.484375 30.078125 48.484375 
Q 22.953125 48.484375 18.875 42.84375 
Q 14.796875 37.203125 14.796875 27.296875 
z
" id="DejaVuSans-100"/>
       <path d="M 9.421875 54.6875 
L 18.40625 54.6875 
L 18.40625 0 
L 9.421875 0 
z
M 9.421875 75.984375 
L 18.40625 75.984375 
L 18.40625 64.59375 
L 9.421875 64.59375 
z
" id="DejaVuSans-105"/>
       <path d="M 48.78125 52.59375 
L 48.78125 44.1875 
Q 44.96875 46.296875 41.140625 47.34375 
Q 37.3125 48.390625 33.40625 48.390625 
Q 24.65625 48.390625 19.8125 42.84375 
Q 14.984375 37.3125 14.984375 27.296875 
Q 14.984375 17.28125 19.8125 11.734375 
Q 24.65625 6.203125 33.40625 6.203125 
Q 37.3125 6.203125 41.140625 7.25 
Q 44.96875 8.296875 48.78125 10.40625 
L 48.78125 2.09375 
Q 45.015625 0.34375 40.984375 -0.53125 
Q 36.96875 -1.421875 32.421875 -1.421875 
Q 20.0625 -1.421875 12.78125 6.34375 
Q 5.515625 14.109375 5.515625 27.296875 
Q 5.515625 40.671875 12.859375 48.328125 
Q 20.21875 56 33.015625 56 
Q 37.15625 56 41.109375 55.140625 
Q 45.0625 54.296875 48.78125 52.59375 
z
" id="DejaVuSans-99"/>
       <path d="M 18.3125 70.21875 
L 18.3125 54.6875 
L 36.8125 54.6875 
L 36.8125 47.703125 
L 18.3125 47.703125 
L 18.3125 18.015625 
Q 18.3125 11.328125 20.140625 9.421875 
Q 21.96875 7.515625 27.59375 7.515625 
L 36.8125 7.515625 
L 36.8125 0 
L 27.59375 0 
Q 17.1875 0 13.234375 3.875 
Q 9.28125 7.765625 9.28125 18.015625 
L 9.28125 47.703125 
L 2.6875 47.703125 
L 2.6875 54.6875 
L 9.28125 54.6875 
L 9.28125 70.21875 
z
" id="DejaVuSans-116"/>
       <path id="DejaVuSans-32"/>
       <path d="M 19.671875 34.8125 
L 19.671875 8.109375 
L 35.5 8.109375 
Q 43.453125 8.109375 47.28125 11.40625 
Q 51.125 14.703125 51.125 21.484375 
Q 51.125 28.328125 47.28125 31.5625 
Q 43.453125 34.8125 35.5 34.8125 
z
M 19.671875 64.796875 
L 19.671875 42.828125 
L 34.28125 42.828125 
Q 41.5 42.828125 45.03125 45.53125 
Q 48.578125 48.25 48.578125 53.8125 
Q 48.578125 59.328125 45.03125 62.0625 
Q 41.5 64.796875 34.28125 64.796875 
z
M 9.8125 72.90625 
L 35.015625 72.90625 
Q 46.296875 72.90625 52.390625 68.21875 
Q 58.5 63.53125 58.5 54.890625 
Q 58.5 48.1875 55.375 44.234375 
Q 52.25 40.28125 46.1875 39.3125 
Q 53.46875 37.75 57.5 32.78125 
Q 61.53125 27.828125 61.53125 20.40625 
Q 61.53125 10.640625 54.890625 5.3125 
Q 48.25 0 35.984375 0 
L 9.8125 0 
z
" id="DejaVuSans-66"/>
       <path d="M 30.609375 48.390625 
Q 23.390625 48.390625 19.1875 42.75 
Q 14.984375 37.109375 14.984375 27.296875 
Q 14.984375 17.484375 19.15625 11.84375 
Q 23.34375 6.203125 30.609375 6.203125 
Q 37.796875 6.203125 41.984375 11.859375 
Q 46.1875 17.53125 46.1875 27.296875 
Q 46.1875 37.015625 41.984375 42.703125 
Q 37.796875 48.390625 30.609375 48.390625 
z
M 30.609375 56 
Q 42.328125 56 49.015625 48.375 
Q 55.71875 40.765625 55.71875 27.296875 
Q 55.71875 13.875 49.015625 6.21875 
Q 42.328125 -1.421875 30.609375 -1.421875 
Q 18.84375 -1.421875 12.171875 6.21875 
Q 5.515625 13.875 5.515625 27.296875 
Q 5.515625 40.765625 12.171875 48.375 
Q 18.84375 56 30.609375 56 
z
" id="DejaVuSans-111"/>
       <path d="M 54.890625 54.6875 
L 35.109375 28.078125 
L 55.90625 0 
L 45.3125 0 
L 29.390625 21.484375 
L 13.484375 0 
L 2.875 0 
L 24.125 28.609375 
L 4.6875 54.6875 
L 15.28125 54.6875 
L 29.78125 35.203125 
L 44.28125 54.6875 
z
" id="DejaVuSans-120"/>
       <path d="M 39.40625 66.21875 
Q 28.65625 66.21875 22.328125 58.203125 
Q 16.015625 50.203125 16.015625 36.375 
Q 16.015625 22.609375 22.328125 14.59375 
Q 28.65625 6.59375 39.40625 6.59375 
Q 50.140625 6.59375 56.421875 14.59375 
Q 62.703125 22.609375 62.703125 36.375 
Q 62.703125 50.203125 56.421875 58.203125 
Q 50.140625 66.21875 39.40625 66.21875 
z
M 39.40625 74.21875 
Q 54.734375 74.21875 63.90625 63.9375 
Q 73.09375 53.65625 73.09375 36.375 
Q 73.09375 19.140625 63.90625 8.859375 
Q 54.734375 -1.421875 39.40625 -1.421875 
Q 24.03125 -1.421875 14.8125 8.828125 
Q 5.609375 19.09375 5.609375 36.375 
Q 5.609375 53.65625 14.8125 63.9375 
Q 24.03125 74.21875 39.40625 74.21875 
z
" id="DejaVuSans-79"/>
       <path d="M 37.109375 75.984375 
L 37.109375 68.5 
L 28.515625 68.5 
Q 23.6875 68.5 21.796875 66.546875 
Q 19.921875 64.59375 19.921875 59.515625 
L 19.921875 54.6875 
L 34.71875 54.6875 
L 34.71875 47.703125 
L 19.921875 47.703125 
L 19.921875 0 
L 10.890625 0 
L 10.890625 47.703125 
L 2.296875 47.703125 
L 2.296875 54.6875 
L 10.890625 54.6875 
L 10.890625 58.5 
Q 10.890625 67.625 15.140625 71.796875 
Q 19.390625 75.984375 28.609375 75.984375 
z
" id="DejaVuSans-102"/>
       <path d="M 53.515625 70.515625 
L 53.515625 60.890625 
Q 47.90625 63.578125 42.921875 64.890625 
Q 37.9375 66.21875 33.296875 66.21875 
Q 25.25 66.21875 20.875 63.09375 
Q 16.5 59.96875 16.5 54.203125 
Q 16.5 49.359375 19.40625 46.890625 
Q 22.3125 44.4375 30.421875 42.921875 
L 36.375 41.703125 
Q 47.40625 39.59375 52.65625 34.296875 
Q 57.90625 29 57.90625 20.125 
Q 57.90625 9.515625 50.796875 4.046875 
Q 43.703125 -1.421875 29.984375 -1.421875 
Q 24.8125 -1.421875 18.96875 -0.25 
Q 13.140625 0.921875 6.890625 3.21875 
L 6.890625 13.375 
Q 12.890625 10.015625 18.65625 8.296875 
Q 24.421875 6.59375 29.984375 6.59375 
Q 38.421875 6.59375 43.015625 9.90625 
Q 47.609375 13.234375 47.609375 19.390625 
Q 47.609375 24.75 44.3125 27.78125 
Q 41.015625 30.8125 33.5 32.328125 
L 27.484375 33.5 
Q 16.453125 35.6875 11.515625 40.375 
Q 6.59375 45.0625 6.59375 53.421875 
Q 6.59375 63.09375 13.40625 68.65625 
Q 20.21875 74.21875 32.171875 74.21875 
Q 37.3125 74.21875 42.625 73.28125 
Q 47.953125 72.359375 53.515625 70.515625 
z
" id="DejaVuSans-83"/>
       <path d="M 14.796875 27.296875 
Q 14.796875 17.390625 18.875 11.75 
Q 22.953125 6.109375 30.078125 6.109375 
Q 37.203125 6.109375 41.296875 11.75 
Q 45.40625 17.390625 45.40625 27.296875 
Q 45.40625 37.203125 41.296875 42.84375 
Q 37.203125 48.484375 30.078125 48.484375 
Q 22.953125 48.484375 18.875 42.84375 
Q 14.796875 37.203125 14.796875 27.296875 
z
M 45.40625 8.203125 
Q 42.578125 3.328125 38.25 0.953125 
Q 33.9375 -1.421875 27.875 -1.421875 
Q 17.96875 -1.421875 11.734375 6.484375 
Q 5.515625 14.40625 5.515625 27.296875 
Q 5.515625 40.1875 11.734375 48.09375 
Q 17.96875 56 27.875 56 
Q 33.9375 56 38.25 53.625 
Q 42.578125 51.265625 45.40625 46.390625 
L 45.40625 54.6875 
L 54.390625 54.6875 
L 54.390625 -20.796875 
L 45.40625 -20.796875 
z
" id="DejaVuSans-113"/>
       <path d="M 8.5 21.578125 
L 8.5 54.6875 
L 17.484375 54.6875 
L 17.484375 21.921875 
Q 17.484375 14.15625 20.5 10.265625 
Q 23.53125 6.390625 29.59375 6.390625 
Q 36.859375 6.390625 41.078125 11.03125 
Q 45.3125 15.671875 45.3125 23.6875 
L 45.3125 54.6875 
L 54.296875 54.6875 
L 54.296875 0 
L 45.3125 0 
L 45.3125 8.40625 
Q 42.046875 3.421875 37.71875 1 
Q 33.40625 -1.421875 27.6875 -1.421875 
Q 18.265625 -1.421875 13.375 4.4375 
Q 8.5 10.296875 8.5 21.578125 
z
M 31.109375 56 
z
" id="DejaVuSans-117"/>
       <path d="M 9.421875 75.984375 
L 18.40625 75.984375 
L 18.40625 0 
L 9.421875 0 
z
" id="DejaVuSans-108"/>
       <path d="M 31 75.875 
Q 24.46875 64.65625 21.28125 53.65625 
Q 18.109375 42.671875 18.109375 31.390625 
Q 18.109375 20.125 21.3125 9.0625 
Q 24.515625 -2 31 -13.1875 
L 23.1875 -13.1875 
Q 15.875 -1.703125 12.234375 9.375 
Q 8.59375 20.453125 8.59375 31.390625 
Q 8.59375 42.28125 12.203125 53.3125 
Q 15.828125 64.359375 23.1875 75.875 
z
" id="DejaVuSans-40"/>
       <path d="M 8.6875 72.90625 
L 18.609375 72.90625 
L 18.609375 28.609375 
Q 18.609375 16.890625 22.84375 11.734375 
Q 27.09375 6.59375 36.625 6.59375 
Q 46.09375 6.59375 50.34375 11.734375 
Q 54.59375 16.890625 54.59375 28.609375 
L 54.59375 72.90625 
L 64.5 72.90625 
L 64.5 27.390625 
Q 64.5 13.140625 57.4375 5.859375 
Q 50.390625 -1.421875 36.625 -1.421875 
Q 22.796875 -1.421875 15.734375 5.859375 
Q 8.6875 13.140625 8.6875 27.390625 
z
" id="DejaVuSans-85"/>
       <path d="M 19.671875 64.796875 
L 19.671875 8.109375 
L 31.59375 8.109375 
Q 46.6875 8.109375 53.6875 14.9375 
Q 60.6875 21.78125 60.6875 36.53125 
Q 60.6875 51.171875 53.6875 57.984375 
Q 46.6875 64.796875 31.59375 64.796875 
z
M 9.8125 72.90625 
L 30.078125 72.90625 
Q 51.265625 72.90625 61.171875 64.09375 
Q 71.09375 55.28125 71.09375 36.53125 
Q 71.09375 17.671875 61.125 8.828125 
Q 51.171875 0 30.078125 0 
L 9.8125 0 
z
" id="DejaVuSans-68"/>
       <path d="M 8.015625 75.875 
L 15.828125 75.875 
Q 23.140625 64.359375 26.78125 53.3125 
Q 30.421875 42.28125 30.421875 31.390625 
Q 30.421875 20.453125 26.78125 9.375 
Q 23.140625 -1.703125 15.828125 -13.1875 
L 8.015625 -13.1875 
Q 14.5 -2 17.703125 9.0625 
Q 20.90625 20.125 20.90625 31.390625 
Q 20.90625 42.671875 17.703125 53.65625 
Q 14.5 64.65625 8.015625 75.875 
z
" id="DejaVuSans-41"/>
       <path d="M 11.71875 12.40625 
L 22.015625 12.40625 
L 22.015625 4 
L 14.015625 -11.625 
L 7.71875 -11.625 
L 11.71875 4 
z
" id="DejaVuSans-44"/>
       <path d="M 9.8125 72.90625 
L 24.515625 72.90625 
L 43.109375 23.296875 
L 61.8125 72.90625 
L 76.515625 72.90625 
L 76.515625 0 
L 66.890625 0 
L 66.890625 64.015625 
L 48.09375 14.015625 
L 38.1875 14.015625 
L 19.390625 64.015625 
L 19.390625 0 
L 9.8125 0 
z
" id="DejaVuSans-77"/>
       <path d="M 54.890625 33.015625 
L 54.890625 0 
L 45.90625 0 
L 45.90625 32.71875 
Q 45.90625 40.484375 42.875 44.328125 
Q 39.84375 48.1875 33.796875 48.1875 
Q 26.515625 48.1875 22.3125 43.546875 
Q 18.109375 38.921875 18.109375 30.90625 
L 18.109375 0 
L 9.078125 0 
L 9.078125 54.6875 
L 18.109375 54.6875 
L 18.109375 46.1875 
Q 21.34375 51.125 25.703125 53.5625 
Q 30.078125 56 35.796875 56 
Q 45.21875 56 50.046875 50.171875 
Q 54.890625 44.34375 54.890625 33.015625 
z
" id="DejaVuSans-110"/>
       <path d="M 44.28125 53.078125 
L 44.28125 44.578125 
Q 40.484375 46.53125 36.375 47.5 
Q 32.28125 48.484375 27.875 48.484375 
Q 21.1875 48.484375 17.84375 46.4375 
Q 14.5 44.390625 14.5 40.28125 
Q 14.5 37.15625 16.890625 35.375 
Q 19.28125 33.59375 26.515625 31.984375 
L 29.59375 31.296875 
Q 39.15625 29.25 43.1875 25.515625 
Q 47.21875 21.78125 47.21875 15.09375 
Q 47.21875 7.46875 41.1875 3.015625 
Q 35.15625 -1.421875 24.609375 -1.421875 
Q 20.21875 -1.421875 15.453125 -0.5625 
Q 10.6875 0.296875 5.421875 2 
L 5.421875 11.28125 
Q 10.40625 8.6875 15.234375 7.390625 
Q 20.0625 6.109375 24.8125 6.109375 
Q 31.15625 6.109375 34.5625 8.28125 
Q 37.984375 10.453125 37.984375 14.40625 
Q 37.984375 18.0625 35.515625 20.015625 
Q 33.0625 21.96875 24.703125 23.78125 
L 21.578125 24.515625 
Q 13.234375 26.265625 9.515625 29.90625 
Q 5.8125 33.546875 5.8125 39.890625 
Q 5.8125 47.609375 11.28125 51.796875 
Q 16.75 56 26.8125 56 
Q 31.78125 56 36.171875 55.265625 
Q 40.578125 54.546875 44.28125 53.078125 
z
" id="DejaVuSans-115"/>
      </defs>
      <use xlink:href="#DejaVuSans-80"/>
      <use x="58.552734" xlink:href="#DejaVuSans-114"/>
      <use x="97.416016" xlink:href="#DejaVuSans-101"/>
      <use x="158.939453" xlink:href="#DejaVuSans-100"/>
      <use x="222.416016" xlink:href="#DejaVuSans-105"/>
      <use x="250.199219" xlink:href="#DejaVuSans-99"/>
      <use x="305.179688" xlink:href="#DejaVuSans-116"/>
      <use x="344.388672" xlink:href="#DejaVuSans-101"/>
      <use x="405.912109" xlink:href="#DejaVuSans-100"/>
      <use x="469.388672" xlink:href="#DejaVuSans-32"/>
      <use x="501.175781" xlink:href="#DejaVuSans-66"/>
      <use x="569.779297" xlink:href="#DejaVuSans-111"/>
      <use x="627.835938" xlink:href="#DejaVuSans-120"/>
      <use x="687.015625" xlink:href="#DejaVuSans-32"/>
      <use x="718.802734" xlink:href="#DejaVuSans-79"/>
      <use x="797.513672" xlink:href="#DejaVuSans-102"/>
      <use x="832.71875" xlink:href="#DejaVuSans-102"/>
      <use x="867.923828" xlink:href="#DejaVuSans-105"/>
      <use x="895.707031" xlink:href="#DejaVuSans-99"/>
      <use x="950.6875" xlink:href="#DejaVuSans-101"/>
      <use x="1012.210938" xlink:href="#DejaVuSans-32"/>
      <use x="1043.998047" xlink:href="#DejaVuSans-83"/>
      <use x="1107.474609" xlink:href="#DejaVuSans-101"/>
      <use x="1168.998047" xlink:href="#DejaVuSans-113"/>
      <use x="1232.474609" xlink:href="#DejaVuSans-117"/>
      <use x="1295.853516" xlink:href="#DejaVuSans-101"/>
      <use x="1357.376953" xlink:href="#DejaVuSans-108"/>
      <use x="1385.160156" xlink:href="#DejaVuSans-32"/>
      <use x="1416.947266" xlink:href="#DejaVuSans-40"/>
      <use x="1455.960938" xlink:href="#DejaVuSans-85"/>
      <use x="1529.154297" xlink:href="#DejaVuSans-83"/>
      <use x="1592.630859" xlink:href="#DejaVuSans-68"/>
      <use x="1669.632812" xlink:href="#DejaVuSans-41"/>
      <use x="1708.646484" xlink:href="#DejaVuSans-44"/>
      <use x="1740.433594" xlink:href="#DejaVuSans-32"/>
      <use x="1772.220703" xlink:href="#DejaVuSans-77"/>
      <use x="1858.5" xlink:href="#DejaVuSans-105"/>
      <use x="1886.283203" xlink:href="#DejaVuSans-108"/>
      <use x="1914.066406" xlink:href="#DejaVuSans-108"/>
      <use x="1941.849609" xlink:href="#DejaVuSans-105"/>
      <use x="1969.632812" xlink:href="#DejaVuSans-111"/>
      <use x="2030.814453" xlink:href="#DejaVuSans-110"/>
      <use x="2094.193359" xlink:href="#DejaVuSans-115"/>
     </g>
    </g>
   </g>
   <g id="matplotlib.axis_2">
    <g id="ytick_1">
     <g id="line2d_11">
      <path clip-path="url(#pc0b9ea38aa)" d="M 126 368.111162 
L 907.2 368.111162 
" style="fill:none;stroke:#b0b0b0;stroke-linecap:square;stroke-width:0.8;"/>
     </g>
     <g id="line2d_12">
      <defs>
       <path d="M 0 0 
L -3.5 0 
" id="m66347b2568" style="stroke:#000000;stroke-width:0.8;"/>
      </defs>
      <g>
       <use style="stroke:#000000;stroke-width:0.8;" x="126" xlink:href="#m66347b2568" y="368.111162"/>
      </g>
     </g>
     <g id="text_7">
      <!-- −100 -->
      <g transform="translate(86.039375 372.670224)scale(0.12 -0.12)">
       <defs>
        <path d="M 10.59375 35.5 
L 73.1875 35.5 
L 73.1875 27.203125 
L 10.59375 27.203125 
z
" id="DejaVuSans-8722"/>
       </defs>
       <use xlink:href="#DejaVuSans-8722"/>
       <use x="83.789062" xlink:href="#DejaVuSans-49"/>
       <use x="147.412109" xlink:href="#DejaVuSans-48"/>
       <use x="211.035156" xlink:href="#DejaVuSans-48"/>
      </g>
     </g>
    </g>
    <g id="ytick_2">
     <g id="line2d_13">
      <path clip-path="url(#pc0b9ea38aa)" d="M 126 331.467237 
L 907.2 331.467237 
" style="fill:none;stroke:#b0b0b0;stroke-linecap:square;stroke-width:0.8;"/>
     </g>
     <g id="line2d_14">
      <g>
       <use style="stroke:#000000;stroke-width:0.8;" x="126" xlink:href="#m66347b2568" y="331.467237"/>
      </g>
     </g>
     <g id="text_8">
      <!-- 0 -->
      <g transform="translate(111.365 336.0263)scale(0.12 -0.12)">
       <use xlink:href="#DejaVuSans-48"/>
      </g>
     </g>
    </g>
    <g id="ytick_3">
     <g id="line2d_15">
      <path clip-path="url(#pc0b9ea38aa)" d="M 126 294.823313 
L 907.2 294.823313 
" style="fill:none;stroke:#b0b0b0;stroke-linecap:square;stroke-width:0.8;"/>
     </g>
     <g id="line2d_16">
      <g>
       <use style="stroke:#000000;stroke-width:0.8;" x="126" xlink:href="#m66347b2568" y="294.823313"/>
      </g>
     </g>
     <g id="text_9">
      <!-- 100 -->
      <g transform="translate(96.095 299.382375)scale(0.12 -0.12)">
       <use xlink:href="#DejaVuSans-49"/>
       <use x="63.623047" xlink:href="#DejaVuSans-48"/>
       <use x="127.246094" xlink:href="#DejaVuSans-48"/>
      </g>
     </g>
    </g>
    <g id="ytick_4">
     <g id="line2d_17">
      <path clip-path="url(#pc0b9ea38aa)" d="M 126 258.179389 
L 907.2 258.179389 
" style="fill:none;stroke:#b0b0b0;stroke-linecap:square;stroke-width:0.8;"/>
     </g>
     <g id="line2d_18">
      <g>
       <use style="stroke:#000000;stroke-width:0.8;" x="126" xlink:href="#m66347b2568" y="258.179389"/>
      </g>
     </g>
     <g id="text_10">
      <!-- 200 -->
      <g transform="translate(96.095 262.738451)scale(0.12 -0.12)">
       <use xlink:href="#DejaVuSans-50"/>
       <use x="63.623047" xlink:href="#DejaVuSans-48"/>
       <use x="127.246094" xlink:href="#DejaVuSans-48"/>
      </g>
     </g>
    </g>
    <g id="ytick_5">
     <g id="line2d_19">
      <path clip-path="url(#pc0b9ea38aa)" d="M 126 221.535464 
L 907.2 221.535464 
" style="fill:none;stroke:#b0b0b0;stroke-linecap:square;stroke-width:0.8;"/>
     </g>
     <g id="line2d_20">
      <g>
       <use style="stroke:#000000;stroke-width:0.8;" x="126" xlink:href="#m66347b2568" y="221.535464"/>
      </g>
     </g>
     <g id="text_11">
      <!-- 300 -->
      <g transform="translate(96.095 226.094527)scale(0.12 -0.12)">
       <defs>
        <path d="M 40.578125 39.3125 
Q 47.65625 37.796875 51.625 33 
Q 55.609375 28.21875 55.609375 21.1875 
Q 55.609375 10.40625 48.1875 4.484375 
Q 40.765625 -1.421875 27.09375 -1.421875 
Q 22.515625 -1.421875 17.65625 -0.515625 
Q 12.796875 0.390625 7.625 2.203125 
L 7.625 11.71875 
Q 11.71875 9.328125 16.59375 8.109375 
Q 21.484375 6.890625 26.8125 6.890625 
Q 36.078125 6.890625 40.9375 10.546875 
Q 45.796875 14.203125 45.796875 21.1875 
Q 45.796875 27.640625 41.28125 31.265625 
Q 36.765625 34.90625 28.71875 34.90625 
L 20.21875 34.90625 
L 20.21875 43.015625 
L 29.109375 43.015625 
Q 36.375 43.015625 40.234375 45.921875 
Q 44.09375 48.828125 44.09375 54.296875 
Q 44.09375 59.90625 40.109375 62.90625 
Q 36.140625 65.921875 28.71875 65.921875 
Q 24.65625 65.921875 20.015625 65.03125 
Q 15.375 64.15625 9.8125 62.3125 
L 9.8125 71.09375 
Q 15.4375 72.65625 20.34375 73.4375 
Q 25.25 74.21875 29.59375 74.21875 
Q 40.828125 74.21875 47.359375 69.109375 
Q 53.90625 64.015625 53.90625 55.328125 
Q 53.90625 49.265625 50.4375 45.09375 
Q 46.96875 40.921875 40.578125 39.3125 
z
" id="DejaVuSans-51"/>
       </defs>
       <use xlink:href="#DejaVuSans-51"/>
       <use x="63.623047" xlink:href="#DejaVuSans-48"/>
       <use x="127.246094" xlink:href="#DejaVuSans-48"/>
      </g>
     </g>
    </g>
    <g id="ytick_6">
     <g id="line2d_21">
      <path clip-path="url(#pc0b9ea38aa)" d="M 126 184.89154 
L 907.2 184.89154 
" style="fill:none;stroke:#b0b0b0;stroke-linecap:square;stroke-width:0.8;"/>
     </g>
     <g id="line2d_22">
      <g>
       <use style="stroke:#000000;stroke-width:0.8;" x="126" xlink:href="#m66347b2568" y="184.89154"/>
      </g>
     </g>
     <g id="text_12">
      <!-- 400 -->
      <g transform="translate(96.095 189.450602)scale(0.12 -0.12)">
       <defs>
        <path d="M 37.796875 64.3125 
L 12.890625 25.390625 
L 37.796875 25.390625 
z
M 35.203125 72.90625 
L 47.609375 72.90625 
L 47.609375 25.390625 
L 58.015625 25.390625 
L 58.015625 17.1875 
L 47.609375 17.1875 
L 47.609375 0 
L 37.796875 0 
L 37.796875 17.1875 
L 4.890625 17.1875 
L 4.890625 26.703125 
z
" id="DejaVuSans-52"/>
       </defs>
       <use xlink:href="#DejaVuSans-52"/>
       <use x="63.623047" xlink:href="#DejaVuSans-48"/>
       <use x="127.246094" xlink:href="#DejaVuSans-48"/>
      </g>
     </g>
    </g>
    <g id="ytick_7">
     <g id="line2d_23">
      <path clip-path="url(#pc0b9ea38aa)" d="M 126 148.247615 
L 907.2 148.247615 
" style="fill:none;stroke:#b0b0b0;stroke-linecap:square;stroke-width:0.8;"/>
     </g>
     <g id="line2d_24">
      <g>
       <use style="stroke:#000000;stroke-width:0.8;" x="126" xlink:href="#m66347b2568" y="148.247615"/>
      </g>
     </g>
     <g id="text_13">
      <!-- 500 -->
      <g transform="translate(96.095 152.806678)scale(0.12 -0.12)">
       <use xlink:href="#DejaVuSans-53"/>
       <use x="63.623047" xlink:href="#DejaVuSans-48"/>
       <use x="127.246094" xlink:href="#DejaVuSans-48"/>
      </g>
     </g>
    </g>
    <g id="ytick_8">
     <g id="line2d_25">
      <path clip-path="url(#pc0b9ea38aa)" d="M 126 111.603691 
L 907.2 111.603691 
" style="fill:none;stroke:#b0b0b0;stroke-linecap:square;stroke-width:0.8;"/>
     </g>
     <g id="line2d_26">
      <g>
       <use style="stroke:#000000;stroke-width:0.8;" x="126" xlink:href="#m66347b2568" y="111.603691"/>
      </g>
     </g>
     <g id="text_14">
      <!-- 600 -->
      <g transform="translate(96.095 116.162753)scale(0.12 -0.12)">
       <defs>
        <path d="M 33.015625 40.375 
Q 26.375 40.375 22.484375 35.828125 
Q 18.609375 31.296875 18.609375 23.390625 
Q 18.609375 15.53125 22.484375 10.953125 
Q 26.375 6.390625 33.015625 6.390625 
Q 39.65625 6.390625 43.53125 10.953125 
Q 47.40625 15.53125 47.40625 23.390625 
Q 47.40625 31.296875 43.53125 35.828125 
Q 39.65625 40.375 33.015625 40.375 
z
M 52.59375 71.296875 
L 52.59375 62.3125 
Q 48.875 64.0625 45.09375 64.984375 
Q 41.3125 65.921875 37.59375 65.921875 
Q 27.828125 65.921875 22.671875 59.328125 
Q 17.53125 52.734375 16.796875 39.40625 
Q 19.671875 43.65625 24.015625 45.921875 
Q 28.375 48.1875 33.59375 48.1875 
Q 44.578125 48.1875 50.953125 41.515625 
Q 57.328125 34.859375 57.328125 23.390625 
Q 57.328125 12.15625 50.6875 5.359375 
Q 44.046875 -1.421875 33.015625 -1.421875 
Q 20.359375 -1.421875 13.671875 8.265625 
Q 6.984375 17.96875 6.984375 36.375 
Q 6.984375 53.65625 15.1875 63.9375 
Q 23.390625 74.21875 37.203125 74.21875 
Q 40.921875 74.21875 44.703125 73.484375 
Q 48.484375 72.75 52.59375 71.296875 
z
" id="DejaVuSans-54"/>
       </defs>
       <use xlink:href="#DejaVuSans-54"/>
       <use x="63.623047" xlink:href="#DejaVuSans-48"/>
       <use x="127.246094" xlink:href="#DejaVuSans-48"/>
      </g>
     </g>
    </g>
    <g id="ytick_9">
     <g id="line2d_27">
      <path clip-path="url(#pc0b9ea38aa)" d="M 126 74.959766 
L 907.2 74.959766 
" style="fill:none;stroke:#b0b0b0;stroke-linecap:square;stroke-width:0.8;"/>
     </g>
     <g id="line2d_28">
      <g>
       <use style="stroke:#000000;stroke-width:0.8;" x="126" xlink:href="#m66347b2568" y="74.959766"/>
      </g>
     </g>
     <g id="text_15">
      <!-- 700 -->
      <g transform="translate(96.095 79.518829)scale(0.12 -0.12)">
       <defs>
        <path d="M 8.203125 72.90625 
L 55.078125 72.90625 
L 55.078125 68.703125 
L 28.609375 0 
L 18.3125 0 
L 43.21875 64.59375 
L 8.203125 64.59375 
z
" id="DejaVuSans-55"/>
       </defs>
       <use xlink:href="#DejaVuSans-55"/>
       <use x="63.623047" xlink:href="#DejaVuSans-48"/>
       <use x="127.246094" xlink:href="#DejaVuSans-48"/>
      </g>
     </g>
    </g>
    <g id="text_16">
     <!-- Percent Residual (%) -->
     <g transform="translate(79.127813 287.375469)rotate(-90)scale(0.14 -0.14)">
      <defs>
       <path d="M 44.390625 34.1875 
Q 47.5625 33.109375 50.5625 29.59375 
Q 53.5625 26.078125 56.59375 19.921875 
L 66.609375 0 
L 56 0 
L 46.6875 18.703125 
Q 43.0625 26.03125 39.671875 28.421875 
Q 36.28125 30.8125 30.421875 30.8125 
L 19.671875 30.8125 
L 19.671875 0 
L 9.8125 0 
L 9.8125 72.90625 
L 32.078125 72.90625 
Q 44.578125 72.90625 50.734375 67.671875 
Q 56.890625 62.453125 56.890625 51.90625 
Q 56.890625 45.015625 53.6875 40.46875 
Q 50.484375 35.9375 44.390625 34.1875 
z
M 19.671875 64.796875 
L 19.671875 38.921875 
L 32.078125 38.921875 
Q 39.203125 38.921875 42.84375 42.21875 
Q 46.484375 45.515625 46.484375 51.90625 
Q 46.484375 58.296875 42.84375 61.546875 
Q 39.203125 64.796875 32.078125 64.796875 
z
" id="DejaVuSans-82"/>
       <path d="M 34.28125 27.484375 
Q 23.390625 27.484375 19.1875 25 
Q 14.984375 22.515625 14.984375 16.5 
Q 14.984375 11.71875 18.140625 8.90625 
Q 21.296875 6.109375 26.703125 6.109375 
Q 34.1875 6.109375 38.703125 11.40625 
Q 43.21875 16.703125 43.21875 25.484375 
L 43.21875 27.484375 
z
M 52.203125 31.203125 
L 52.203125 0 
L 43.21875 0 
L 43.21875 8.296875 
Q 40.140625 3.328125 35.546875 0.953125 
Q 30.953125 -1.421875 24.3125 -1.421875 
Q 15.921875 -1.421875 10.953125 3.296875 
Q 6 8.015625 6 15.921875 
Q 6 25.140625 12.171875 29.828125 
Q 18.359375 34.515625 30.609375 34.515625 
L 43.21875 34.515625 
L 43.21875 35.40625 
Q 43.21875 41.609375 39.140625 45 
Q 35.0625 48.390625 27.6875 48.390625 
Q 23 48.390625 18.546875 47.265625 
Q 14.109375 46.140625 10.015625 43.890625 
L 10.015625 52.203125 
Q 14.9375 54.109375 19.578125 55.046875 
Q 24.21875 56 28.609375 56 
Q 40.484375 56 46.34375 49.84375 
Q 52.203125 43.703125 52.203125 31.203125 
z
" id="DejaVuSans-97"/>
       <path d="M 72.703125 32.078125 
Q 68.453125 32.078125 66.03125 28.46875 
Q 63.625 24.859375 63.625 18.40625 
Q 63.625 12.0625 66.03125 8.421875 
Q 68.453125 4.78125 72.703125 4.78125 
Q 76.859375 4.78125 79.265625 8.421875 
Q 81.6875 12.0625 81.6875 18.40625 
Q 81.6875 24.8125 79.265625 28.4375 
Q 76.859375 32.078125 72.703125 32.078125 
z
M 72.703125 38.28125 
Q 80.421875 38.28125 84.953125 32.90625 
Q 89.5 27.546875 89.5 18.40625 
Q 89.5 9.28125 84.9375 3.921875 
Q 80.375 -1.421875 72.703125 -1.421875 
Q 64.890625 -1.421875 60.34375 3.921875 
Q 55.8125 9.28125 55.8125 18.40625 
Q 55.8125 27.59375 60.375 32.9375 
Q 64.9375 38.28125 72.703125 38.28125 
z
M 22.3125 68.015625 
Q 18.109375 68.015625 15.6875 64.375 
Q 13.28125 60.75 13.28125 54.390625 
Q 13.28125 47.953125 15.671875 44.328125 
Q 18.0625 40.71875 22.3125 40.71875 
Q 26.5625 40.71875 28.96875 44.328125 
Q 31.390625 47.953125 31.390625 54.390625 
Q 31.390625 60.6875 28.953125 64.34375 
Q 26.515625 68.015625 22.3125 68.015625 
z
M 66.40625 74.21875 
L 74.21875 74.21875 
L 28.609375 -1.421875 
L 20.796875 -1.421875 
z
M 22.3125 74.21875 
Q 30.03125 74.21875 34.609375 68.875 
Q 39.203125 63.53125 39.203125 54.390625 
Q 39.203125 45.171875 34.640625 39.84375 
Q 30.078125 34.515625 22.3125 34.515625 
Q 14.546875 34.515625 10.03125 39.859375 
Q 5.515625 45.21875 5.515625 54.390625 
Q 5.515625 63.484375 10.046875 68.84375 
Q 14.59375 74.21875 22.3125 74.21875 
z
" id="DejaVuSans-37"/>
      </defs>
      <use xlink:href="#DejaVuSans-80"/>
      <use x="56.677734" xlink:href="#DejaVuSans-101"/>
      <use x="118.201172" xlink:href="#DejaVuSans-114"/>
      <use x="157.064453" xlink:href="#DejaVuSans-99"/>
      <use x="212.044922" xlink:href="#DejaVuSans-101"/>
      <use x="273.568359" xlink:href="#DejaVuSans-110"/>
      <use x="336.947266" xlink:href="#DejaVuSans-116"/>
      <use x="376.15625" xlink:href="#DejaVuSans-32"/>
      <use x="407.943359" xlink:href="#DejaVuSans-82"/>
      <use x="472.925781" xlink:href="#DejaVuSans-101"/>
      <use x="534.449219" xlink:href="#DejaVuSans-115"/>
      <use x="586.548828" xlink:href="#DejaVuSans-105"/>
      <use x="614.332031" xlink:href="#DejaVuSans-100"/>
      <use x="677.808594" xlink:href="#DejaVuSans-117"/>
      <use x="741.1875" xlink:href="#DejaVuSans-97"/>
      <use x="802.466797" xlink:href="#DejaVuSans-108"/>
      <use x="830.25" xlink:href="#DejaVuSans-32"/>
      <use x="862.037109" xlink:href="#DejaVuSans-40"/>
      <use x="901.050781" xlink:href="#DejaVuSans-37"/>
      <use x="996.070312" xlink:href="#DejaVuSans-41"/>
     </g>
    </g>
   </g>
   <g id="line2d_29">
    <path clip-path="url(#pc0b9ea38aa)" d="M 126 331.467237 
L 907.2 331.467237 
" style="fill:none;stroke:#000000;stroke-linecap:square;stroke-width:1.5;"/>
   </g>
   <g id="patch_3">
    <path d="M 126 378 
L 126 51.84 
" style="fill:none;stroke:#000000;stroke-linecap:square;stroke-linejoin:miter;stroke-width:0.8;"/>
   </g>
   <g id="patch_4">
    <path d="M 907.2 378 
L 907.2 51.84 
" style="fill:none;stroke:#000000;stroke-linecap:square;stroke-linejoin:miter;stroke-width:0.8;"/>
   </g>
   <g id="patch_5">
    <path d="M 126 378 
L 907.2 378 
" style="fill:none;stroke:#000000;stroke-linecap:square;stroke-linejoin:miter;stroke-width:0.8;"/>
   </g>
   <g id="patch_6">
    <path d="M 126 51.84 
L 907.2 51.84 
" style="fill:none;stroke:#000000;stroke-linecap:square;stroke-linejoin:miter;stroke-width:0.8;"/>
   </g>
  </g>
 </g>
 <defs>
  <clipPath id="pc0b9ea38aa">
   <rect height="326.16" width="781.2" x="126" y="51.84"/>
  </clipPath>
 </defs>
</svg>
