<?xml version="1.0" encoding="utf-8" standalone="no"?>
<!DOCTYPE svg PUBLIC "-//W3C//DTD SVG 1.1//EN"
  "http://www.w3.org/Graphics/SVG/1.1/DTD/svg11.dtd">
<!-- Created with matplotlib (https://matplotlib.org/) -->
<svg height="432pt" version="1.1" viewBox="0 0 1008 432" width="1008pt" xmlns="http://www.w3.org/2000/svg" xmlns:xlink="http://www.w3.org/1999/xlink">
 <metadata>
  <rdf:RDF xmlns:cc="http://creativecommons.org/ns#" xmlns:dc="http://purl.org/dc/elements/1.1/" xmlns:rdf="http://www.w3.org/1999/02/22-rdf-syntax-ns#">
   <cc:Work>
    <dc:type rdf:resource="http://purl.org/dc/dcmitype/StillImage"/>
    <dc:date>2020-11-02T10:58:04.652885</dc:date>
    <dc:format>image/svg+xml</dc:format>
    <dc:creator>
     <cc:Agent>
      <dc:title>Matplotlib v3.3.0, https://matplotlib.org/</dc:title>
     </cc:Agent>
    </dc:creator>
   </cc:Work>
  </rdf:RDF>
 </metadata>
 <defs>
  <style type="text/css">*{stroke-linecap:butt;stroke-linejoin:round;}</style>
 </defs>
 <g id="figure_1">
  <g id="patch_1">
   <path d="M 0 432 
L 1008 432 
L 1008 0 
L 0 0 
z
" style="fill:none;"/>
  </g>
  <g id="axes_1">
   <g id="patch_2">
    <path d="M 126 378 
L 907.2 378 
L 907.2 51.84 
L 126 51.84 
z
" style="fill:#ffffff;"/>
   </g>
   <g id="PathCollection_1">
    <defs>
     <path d="M 0 3 
C 0.795609 3 1.55874 2.683901 2.12132 2.12132 
C 2.683901 1.55874 3 0.795609 3 0 
C 3 -0.795609 2.683901 -1.55874 2.12132 -2.12132 
C 1.55874 -2.683901 0.795609 -3 0 -3 
C -0.795609 -3 -1.55874 -2.683901 -2.12132 -2.12132 
C -2.683901 -1.55874 -3 -0.795609 -3 0 
C -3 0.795609 -2.683901 1.55874 -2.12132 2.12132 
C -1.55874 2.683901 -0.795609 3 0 3 
z
" id="meac86c2eab" style="stroke:#ff0000;"/>
    </defs>
    <g clip-path="url(#pa5e6e1008a)">
     <use style="fill:#ff0000;stroke:#ff0000;" x="294.250823" xlink:href="#meac86c2eab" y="126.37141"/>
     <use style="fill:#ff0000;stroke:#ff0000;" x="527.432669" xlink:href="#meac86c2eab" y="284.639676"/>
     <use style="fill:#ff0000;stroke:#ff0000;" x="515.516272" xlink:href="#meac86c2eab" y="291.573455"/>
     <use style="fill:#ff0000;stroke:#ff0000;" x="555.853805" xlink:href="#meac86c2eab" y="287.449115"/>
     <use style="fill:#ff0000;stroke:#ff0000;" x="793.104456" xlink:href="#meac86c2eab" y="348.430875"/>
     <use style="fill:#ff0000;stroke:#ff0000;" x="335.969917" xlink:href="#meac86c2eab" y="174.176912"/>
     <use style="fill:#ff0000;stroke:#ff0000;" x="176.100559" xlink:href="#meac86c2eab" y="266.675705"/>
     <use style="fill:#ff0000;stroke:#ff0000;" x="531.930808" xlink:href="#meac86c2eab" y="251.625363"/>
     <use style="fill:#ff0000;stroke:#ff0000;" x="265.04039" xlink:href="#meac86c2eab" y="302.221447"/>
     <use style="fill:#ff0000;stroke:#ff0000;" x="306.497283" xlink:href="#meac86c2eab" y="295.766564"/>
     <use style="fill:#ff0000;stroke:#ff0000;" x="167.788457" xlink:href="#meac86c2eab" y="270.743086"/>
     <use style="fill:#ff0000;stroke:#ff0000;" x="301.724138" xlink:href="#meac86c2eab" y="194.118366"/>
     <use style="fill:#ff0000;stroke:#ff0000;" x="181.3265" xlink:href="#meac86c2eab" y="243.629475"/>
     <use style="fill:#ff0000;stroke:#ff0000;" x="324.685367" xlink:href="#meac86c2eab" y="282.317517"/>
     <use style="fill:#ff0000;stroke:#ff0000;" x="389.628391" xlink:href="#meac86c2eab" y="237.481115"/>
     <use style="fill:#ff0000;stroke:#ff0000;" x="228.568009" xlink:href="#meac86c2eab" y="230.098753"/>
     <use style="fill:#ff0000;stroke:#ff0000;" x="238.146991" xlink:href="#meac86c2eab" y="66.665455"/>
     <use style="fill:#ff0000;stroke:#ff0000;" x="453.815326" xlink:href="#meac86c2eab" y="293.166876"/>
     <use style="fill:#ff0000;stroke:#ff0000;" x="633.350746" xlink:href="#meac86c2eab" y="346.497618"/>
     <use style="fill:#ff0000;stroke:#ff0000;" x="166.333677" xlink:href="#meac86c2eab" y="268.263789"/>
     <use style="fill:#ff0000;stroke:#ff0000;" x="243.376628" xlink:href="#meac86c2eab" y="274.238507"/>
     <use style="fill:#ff0000;stroke:#ff0000;" x="166.808993" xlink:href="#meac86c2eab" y="270.900526"/>
     <use style="fill:#ff0000;stroke:#ff0000;" x="227.817808" xlink:href="#meac86c2eab" y="288.984557"/>
     <use style="fill:#ff0000;stroke:#ff0000;" x="461.318303" xlink:href="#meac86c2eab" y="152.732146"/>
     <use style="fill:#ff0000;stroke:#ff0000;" x="199.146908" xlink:href="#meac86c2eab" y="271.638319"/>
     <use style="fill:#ff0000;stroke:#ff0000;" x="174.682837" xlink:href="#meac86c2eab" y="271.421484"/>
     <use style="fill:#ff0000;stroke:#ff0000;" x="213.174578" xlink:href="#meac86c2eab" y="270.550551"/>
     <use style="fill:#ff0000;stroke:#ff0000;" x="328.001437" xlink:href="#meac86c2eab" y="94.975122"/>
     <use style="fill:#ff0000;stroke:#ff0000;" x="684.121027" xlink:href="#meac86c2eab" y="241.820035"/>
     <use style="fill:#ff0000;stroke:#ff0000;" x="177.768958" xlink:href="#meac86c2eab" y="269.100229"/>
     <use style="fill:#ff0000;stroke:#ff0000;" x="188.95029" xlink:href="#meac86c2eab" y="244.187234"/>
     <use style="fill:#ff0000;stroke:#ff0000;" x="748.629384" xlink:href="#meac86c2eab" y="238.408477"/>
     <use style="fill:#ff0000;stroke:#ff0000;" x="249.36817" xlink:href="#meac86c2eab" y="267.585045"/>
     <use style="fill:#ff0000;stroke:#ff0000;" x="193.386156" xlink:href="#meac86c2eab" y="276.804118"/>
     <use style="fill:#ff0000;stroke:#ff0000;" x="196.831869" xlink:href="#meac86c2eab" y="276.902361"/>
     <use style="fill:#ff0000;stroke:#ff0000;" x="407.154565" xlink:href="#meac86c2eab" y="214.09649"/>
     <use style="fill:#ff0000;stroke:#ff0000;" x="866.10536" xlink:href="#meac86c2eab" y="216.283308"/>
     <use style="fill:#ff0000;stroke:#ff0000;" x="241.323555" xlink:href="#meac86c2eab" y="266.819695"/>
     <use style="fill:#ff0000;stroke:#ff0000;" x="203.626904" xlink:href="#meac86c2eab" y="209.787874"/>
     <use style="fill:#ff0000;stroke:#ff0000;" x="180.180574" xlink:href="#meac86c2eab" y="268.368055"/>
     <use style="fill:#ff0000;stroke:#ff0000;" x="197.979124" xlink:href="#meac86c2eab" y="281.472072"/>
     <use style="fill:#ff0000;stroke:#ff0000;" x="226.649702" xlink:href="#meac86c2eab" y="253.175113"/>
     <use style="fill:#ff0000;stroke:#ff0000;" x="318.036655" xlink:href="#meac86c2eab" y="250.210557"/>
     <use style="fill:#ff0000;stroke:#ff0000;" x="212.92366" xlink:href="#meac86c2eab" y="267.223754"/>
     <use style="fill:#ff0000;stroke:#ff0000;" x="179.22943" xlink:href="#meac86c2eab" y="273.023693"/>
     <use style="fill:#ff0000;stroke:#ff0000;" x="184.147971" xlink:href="#meac86c2eab" y="275.129683"/>
     <use style="fill:#ff0000;stroke:#ff0000;" x="330.335147" xlink:href="#meac86c2eab" y="283.503016"/>
     <use style="fill:#ff0000;stroke:#ff0000;" x="342.038181" xlink:href="#meac86c2eab" y="133.929584"/>
     <use style="fill:#ff0000;stroke:#ff0000;" x="537.724035" xlink:href="#meac86c2eab" y="278.505786"/>
     <use style="fill:#ff0000;stroke:#ff0000;" x="218.487676" xlink:href="#meac86c2eab" y="249.148825"/>
     <use style="fill:#ff0000;stroke:#ff0000;" x="345.582395" xlink:href="#meac86c2eab" y="311.844043"/>
     <use style="fill:#ff0000;stroke:#ff0000;" x="201.179869" xlink:href="#meac86c2eab" y="264.633618"/>
     <use style="fill:#ff0000;stroke:#ff0000;" x="175.783263" xlink:href="#meac86c2eab" y="272.925225"/>
     <use style="fill:#ff0000;stroke:#ff0000;" x="208.497065" xlink:href="#meac86c2eab" y="269.844666"/>
     <use style="fill:#ff0000;stroke:#ff0000;" x="297.932787" xlink:href="#meac86c2eab" y="272.323617"/>
     <use style="fill:#ff0000;stroke:#ff0000;" x="636.577051" xlink:href="#meac86c2eab" y="247.194001"/>
     <use style="fill:#ff0000;stroke:#ff0000;" x="268.463246" xlink:href="#meac86c2eab" y="282.609841"/>
     <use style="fill:#ff0000;stroke:#ff0000;" x="525.710694" xlink:href="#meac86c2eab" y="208.519257"/>
     <use style="fill:#ff0000;stroke:#ff0000;" x="532.213327" xlink:href="#meac86c2eab" y="323.832685"/>
     <use style="fill:#ff0000;stroke:#ff0000;" x="860.568609" xlink:href="#meac86c2eab" y="333.665316"/>
     <use style="fill:#ff0000;stroke:#ff0000;" x="291.556533" xlink:href="#meac86c2eab" y="249.96012"/>
     <use style="fill:#ff0000;stroke:#ff0000;" x="220.993666" xlink:href="#meac86c2eab" y="275.368575"/>
     <use style="fill:#ff0000;stroke:#ff0000;" x="174.235792" xlink:href="#meac86c2eab" y="251.342233"/>
     <use style="fill:#ff0000;stroke:#ff0000;" x="329.009608" xlink:href="#meac86c2eab" y="265.232523"/>
     <use style="fill:#ff0000;stroke:#ff0000;" x="783.444772" xlink:href="#meac86c2eab" y="271.597843"/>
     <use style="fill:#ff0000;stroke:#ff0000;" x="184.414944" xlink:href="#meac86c2eab" y="245.152989"/>
     <use style="fill:#ff0000;stroke:#ff0000;" x="191.828677" xlink:href="#meac86c2eab" y="279.238841"/>
     <use style="fill:#ff0000;stroke:#ff0000;" x="224.243975" xlink:href="#meac86c2eab" y="259.99593"/>
     <use style="fill:#ff0000;stroke:#ff0000;" x="208.66637" xlink:href="#meac86c2eab" y="265.123653"/>
     <use style="fill:#ff0000;stroke:#ff0000;" x="316.957491" xlink:href="#meac86c2eab" y="336.159758"/>
     <use style="fill:#ff0000;stroke:#ff0000;" x="364.904457" xlink:href="#meac86c2eab" y="233.292467"/>
     <use style="fill:#ff0000;stroke:#ff0000;" x="249.388395" xlink:href="#meac86c2eab" y="216.346698"/>
     <use style="fill:#ff0000;stroke:#ff0000;" x="385.485863" xlink:href="#meac86c2eab" y="259.460277"/>
     <use style="fill:#ff0000;stroke:#ff0000;" x="174.132525" xlink:href="#meac86c2eab" y="272.110924"/>
     <use style="fill:#ff0000;stroke:#ff0000;" x="871.690909" xlink:href="#meac86c2eab" y="363.174545"/>
     <use style="fill:#ff0000;stroke:#ff0000;" x="183.840956" xlink:href="#meac86c2eab" y="269.693251"/>
     <use style="fill:#ff0000;stroke:#ff0000;" x="215.158768" xlink:href="#meac86c2eab" y="255.514241"/>
     <use style="fill:#ff0000;stroke:#ff0000;" x="196.099201" xlink:href="#meac86c2eab" y="276.220638"/>
     <use style="fill:#ff0000;stroke:#ff0000;" x="252.324735" xlink:href="#meac86c2eab" y="281.855585"/>
     <use style="fill:#ff0000;stroke:#ff0000;" x="211.105765" xlink:href="#meac86c2eab" y="260.769755"/>
     <use style="fill:#ff0000;stroke:#ff0000;" x="187.299675" xlink:href="#meac86c2eab" y="264.192625"/>
     <use style="fill:#ff0000;stroke:#ff0000;" x="175.400476" xlink:href="#meac86c2eab" y="269.533378"/>
     <use style="fill:#ff0000;stroke:#ff0000;" x="199.554524" xlink:href="#meac86c2eab" y="266.714561"/>
     <use style="fill:#ff0000;stroke:#ff0000;" x="234.785903" xlink:href="#meac86c2eab" y="284.414335"/>
     <use style="fill:#ff0000;stroke:#ff0000;" x="198.973614" xlink:href="#meac86c2eab" y="247.530181"/>
     <use style="fill:#ff0000;stroke:#ff0000;" x="220.192935" xlink:href="#meac86c2eab" y="274.012673"/>
     <use style="fill:#ff0000;stroke:#ff0000;" x="199.399534" xlink:href="#meac86c2eab" y="266.958407"/>
     <use style="fill:#ff0000;stroke:#ff0000;" x="262.458284" xlink:href="#meac86c2eab" y="254.824214"/>
     <use style="fill:#ff0000;stroke:#ff0000;" x="195.013759" xlink:href="#meac86c2eab" y="253.584354"/>
     <use style="fill:#ff0000;stroke:#ff0000;" x="254.435724" xlink:href="#meac86c2eab" y="250.866724"/>
     <use style="fill:#ff0000;stroke:#ff0000;" x="409.822821" xlink:href="#meac86c2eab" y="199.397627"/>
     <use style="fill:#ff0000;stroke:#ff0000;" x="215.828567" xlink:href="#meac86c2eab" y="255.844649"/>
     <use style="fill:#ff0000;stroke:#ff0000;" x="274.479611" xlink:href="#meac86c2eab" y="263.957298"/>
     <use style="fill:#ff0000;stroke:#ff0000;" x="222.60838" xlink:href="#meac86c2eab" y="290.578697"/>
     <use style="fill:#ff0000;stroke:#ff0000;" x="255.823869" xlink:href="#meac86c2eab" y="270.76961"/>
     <use style="fill:#ff0000;stroke:#ff0000;" x="641.39739" xlink:href="#meac86c2eab" y="273.594503"/>
     <use style="fill:#ff0000;stroke:#ff0000;" x="230.421308" xlink:href="#meac86c2eab" y="271.05073"/>
     <use style="fill:#ff0000;stroke:#ff0000;" x="261.018747" xlink:href="#meac86c2eab" y="270.129199"/>
     <use style="fill:#ff0000;stroke:#ff0000;" x="173.228593" xlink:href="#meac86c2eab" y="271.665019"/>
     <use style="fill:#ff0000;stroke:#ff0000;" x="161.509091" xlink:href="#meac86c2eab" y="266.84475"/>
     <use style="fill:#ff0000;stroke:#ff0000;" x="278.967723" xlink:href="#meac86c2eab" y="254.960691"/>
     <use style="fill:#ff0000;stroke:#ff0000;" x="340.130709" xlink:href="#meac86c2eab" y="261.109448"/>
     <use style="fill:#ff0000;stroke:#ff0000;" x="296.11483" xlink:href="#meac86c2eab" y="271.426828"/>
     <use style="fill:#ff0000;stroke:#ff0000;" x="199.297724" xlink:href="#meac86c2eab" y="282.923286"/>
     <use style="fill:#ff0000;stroke:#ff0000;" x="214.215098" xlink:href="#meac86c2eab" y="271.063834"/>
     <use style="fill:#ff0000;stroke:#ff0000;" x="383.648294" xlink:href="#meac86c2eab" y="282.576466"/>
     <use style="fill:#ff0000;stroke:#ff0000;" x="215.702371" xlink:href="#meac86c2eab" y="267.793723"/>
    </g>
   </g>
   <g id="matplotlib.axis_1">
    <g id="xtick_1">
     <g id="line2d_1">
      <defs>
       <path d="M 0 0 
L 0 3.5 
" id="m538657f3e7" style="stroke:#000000;stroke-width:0.8;"/>
      </defs>
      <g>
       <use style="stroke:#000000;stroke-width:0.8;" x="159.608923" xlink:href="#m538657f3e7" y="378"/>
      </g>
     </g>
     <g id="text_1">
      <!-- 0 -->
      <g transform="translate(155.791423 394.118125)scale(0.12 -0.12)">
       <defs>
        <path d="M 31.78125 66.40625 
Q 24.171875 66.40625 20.328125 58.90625 
Q 16.5 51.421875 16.5 36.375 
Q 16.5 21.390625 20.328125 13.890625 
Q 24.171875 6.390625 31.78125 6.390625 
Q 39.453125 6.390625 43.28125 13.890625 
Q 47.125 21.390625 47.125 36.375 
Q 47.125 51.421875 43.28125 58.90625 
Q 39.453125 66.40625 31.78125 66.40625 
z
M 31.78125 74.21875 
Q 44.046875 74.21875 50.515625 64.515625 
Q 56.984375 54.828125 56.984375 36.375 
Q 56.984375 17.96875 50.515625 8.265625 
Q 44.046875 -1.421875 31.78125 -1.421875 
Q 19.53125 -1.421875 13.0625 8.265625 
Q 6.59375 17.96875 6.59375 36.375 
Q 6.59375 54.828125 13.0625 64.515625 
Q 19.53125 74.21875 31.78125 74.21875 
z
" id="DejaVuSans-48"/>
       </defs>
       <use xlink:href="#DejaVuSans-48"/>
      </g>
     </g>
    </g>
    <g id="xtick_2">
     <g id="line2d_2">
      <g>
       <use style="stroke:#000000;stroke-width:0.8;" x="321.936677" xlink:href="#m538657f3e7" y="378"/>
      </g>
     </g>
     <g id="text_2">
      <!-- 50 -->
      <g transform="translate(314.301677 394.118125)scale(0.12 -0.12)">
       <defs>
        <path d="M 10.796875 72.90625 
L 49.515625 72.90625 
L 49.515625 64.59375 
L 19.828125 64.59375 
L 19.828125 46.734375 
Q 21.96875 47.46875 24.109375 47.828125 
Q 26.265625 48.1875 28.421875 48.1875 
Q 40.625 48.1875 47.75 41.5 
Q 54.890625 34.8125 54.890625 23.390625 
Q 54.890625 11.625 47.5625 5.09375 
Q 40.234375 -1.421875 26.90625 -1.421875 
Q 22.3125 -1.421875 17.546875 -0.640625 
Q 12.796875 0.140625 7.71875 1.703125 
L 7.71875 11.625 
Q 12.109375 9.234375 16.796875 8.0625 
Q 21.484375 6.890625 26.703125 6.890625 
Q 35.15625 6.890625 40.078125 11.328125 
Q 45.015625 15.765625 45.015625 23.390625 
Q 45.015625 31 40.078125 35.4375 
Q 35.15625 39.890625 26.703125 39.890625 
Q 22.75 39.890625 18.8125 39.015625 
Q 14.890625 38.140625 10.796875 36.28125 
z
" id="DejaVuSans-53"/>
       </defs>
       <use xlink:href="#DejaVuSans-53"/>
       <use x="63.623047" xlink:href="#DejaVuSans-48"/>
      </g>
     </g>
    </g>
    <g id="xtick_3">
     <g id="line2d_3">
      <g>
       <use style="stroke:#000000;stroke-width:0.8;" x="484.264431" xlink:href="#m538657f3e7" y="378"/>
      </g>
     </g>
     <g id="text_3">
      <!-- 100 -->
      <g transform="translate(472.811931 394.118125)scale(0.12 -0.12)">
       <defs>
        <path d="M 12.40625 8.296875 
L 28.515625 8.296875 
L 28.515625 63.921875 
L 10.984375 60.40625 
L 10.984375 69.390625 
L 28.421875 72.90625 
L 38.28125 72.90625 
L 38.28125 8.296875 
L 54.390625 8.296875 
L 54.390625 0 
L 12.40625 0 
z
" id="DejaVuSans-49"/>
       </defs>
       <use xlink:href="#DejaVuSans-49"/>
       <use x="63.623047" xlink:href="#DejaVuSans-48"/>
       <use x="127.246094" xlink:href="#DejaVuSans-48"/>
      </g>
     </g>
    </g>
    <g id="xtick_4">
     <g id="line2d_4">
      <g>
       <use style="stroke:#000000;stroke-width:0.8;" x="646.592186" xlink:href="#m538657f3e7" y="378"/>
      </g>
     </g>
     <g id="text_4">
      <!-- 150 -->
      <g transform="translate(635.139686 394.118125)scale(0.12 -0.12)">
       <use xlink:href="#DejaVuSans-49"/>
       <use x="63.623047" xlink:href="#DejaVuSans-53"/>
       <use x="127.246094" xlink:href="#DejaVuSans-48"/>
      </g>
     </g>
    </g>
    <g id="xtick_5">
     <g id="line2d_5">
      <g>
       <use style="stroke:#000000;stroke-width:0.8;" x="808.91994" xlink:href="#m538657f3e7" y="378"/>
      </g>
     </g>
     <g id="text_5">
      <!-- 200 -->
      <g transform="translate(797.46744 394.118125)scale(0.12 -0.12)">
       <defs>
        <path d="M 19.1875 8.296875 
L 53.609375 8.296875 
L 53.609375 0 
L 7.328125 0 
L 7.328125 8.296875 
Q 12.9375 14.109375 22.625 23.890625 
Q 32.328125 33.6875 34.8125 36.53125 
Q 39.546875 41.84375 41.421875 45.53125 
Q 43.3125 49.21875 43.3125 52.78125 
Q 43.3125 58.59375 39.234375 62.25 
Q 35.15625 65.921875 28.609375 65.921875 
Q 23.96875 65.921875 18.8125 64.3125 
Q 13.671875 62.703125 7.8125 59.421875 
L 7.8125 69.390625 
Q 13.765625 71.78125 18.9375 73 
Q 24.125 74.21875 28.421875 74.21875 
Q 39.75 74.21875 46.484375 68.546875 
Q 53.21875 62.890625 53.21875 53.421875 
Q 53.21875 48.921875 51.53125 44.890625 
Q 49.859375 40.875 45.40625 35.40625 
Q 44.1875 33.984375 37.640625 27.21875 
Q 31.109375 20.453125 19.1875 8.296875 
z
" id="DejaVuSans-50"/>
       </defs>
       <use xlink:href="#DejaVuSans-50"/>
       <use x="63.623047" xlink:href="#DejaVuSans-48"/>
       <use x="127.246094" xlink:href="#DejaVuSans-48"/>
      </g>
     </g>
    </g>
    <g id="text_6">
     <!-- Predicted Box Office Sequel (USD), Millions -->
     <g transform="translate(366.357031 411.251562)scale(0.14 -0.14)">
      <defs>
       <path d="M 19.671875 64.796875 
L 19.671875 37.40625 
L 32.078125 37.40625 
Q 38.96875 37.40625 42.71875 40.96875 
Q 46.484375 44.53125 46.484375 51.125 
Q 46.484375 57.671875 42.71875 61.234375 
Q 38.96875 64.796875 32.078125 64.796875 
z
M 9.8125 72.90625 
L 32.078125 72.90625 
Q 44.34375 72.90625 50.609375 67.359375 
Q 56.890625 61.8125 56.890625 51.125 
Q 56.890625 40.328125 50.609375 34.8125 
Q 44.34375 29.296875 32.078125 29.296875 
L 19.671875 29.296875 
L 19.671875 0 
L 9.8125 0 
z
" id="DejaVuSans-80"/>
       <path d="M 41.109375 46.296875 
Q 39.59375 47.171875 37.8125 47.578125 
Q 36.03125 48 33.890625 48 
Q 26.265625 48 22.1875 43.046875 
Q 18.109375 38.09375 18.109375 28.8125 
L 18.109375 0 
L 9.078125 0 
L 9.078125 54.6875 
L 18.109375 54.6875 
L 18.109375 46.1875 
Q 20.953125 51.171875 25.484375 53.578125 
Q 30.03125 56 36.53125 56 
Q 37.453125 56 38.578125 55.875 
Q 39.703125 55.765625 41.0625 55.515625 
z
" id="DejaVuSans-114"/>
       <path d="M 56.203125 29.59375 
L 56.203125 25.203125 
L 14.890625 25.203125 
Q 15.484375 15.921875 20.484375 11.0625 
Q 25.484375 6.203125 34.421875 6.203125 
Q 39.59375 6.203125 44.453125 7.46875 
Q 49.3125 8.734375 54.109375 11.28125 
L 54.109375 2.78125 
Q 49.265625 0.734375 44.1875 -0.34375 
Q 39.109375 -1.421875 33.890625 -1.421875 
Q 20.796875 -1.421875 13.15625 6.1875 
Q 5.515625 13.8125 5.515625 26.8125 
Q 5.515625 40.234375 12.765625 48.109375 
Q 20.015625 56 32.328125 56 
Q 43.359375 56 49.78125 48.890625 
Q 56.203125 41.796875 56.203125 29.59375 
z
M 47.21875 32.234375 
Q 47.125 39.59375 43.09375 43.984375 
Q 39.0625 48.390625 32.421875 48.390625 
Q 24.90625 48.390625 20.390625 44.140625 
Q 15.875 39.890625 15.1875 32.171875 
z
" id="DejaVuSans-101"/>
       <path d="M 45.40625 46.390625 
L 45.40625 75.984375 
L 54.390625 75.984375 
L 54.390625 0 
L 45.40625 0 
L 45.40625 8.203125 
Q 42.578125 3.328125 38.25 0.953125 
Q 33.9375 -1.421875 27.875 -1.421875 
Q 17.96875 -1.421875 11.734375 6.484375 
Q 5.515625 14.40625 5.515625 27.296875 
Q 5.515625 40.1875 11.734375 48.09375 
Q 17.96875 56 27.875 56 
Q 33.9375 56 38.25 53.625 
Q 42.578125 51.265625 45.40625 46.390625 
z
M 14.796875 27.296875 
Q 14.796875 17.390625 18.875 11.75 
Q 22.953125 6.109375 30.078125 6.109375 
Q 37.203125 6.109375 41.296875 11.75 
Q 45.40625 17.390625 45.40625 27.296875 
Q 45.40625 37.203125 41.296875 42.84375 
Q 37.203125 48.484375 30.078125 48.484375 
Q 22.953125 48.484375 18.875 42.84375 
Q 14.796875 37.203125 14.796875 27.296875 
z
" id="DejaVuSans-100"/>
       <path d="M 9.421875 54.6875 
L 18.40625 54.6875 
L 18.40625 0 
L 9.421875 0 
z
M 9.421875 75.984375 
L 18.40625 75.984375 
L 18.40625 64.59375 
L 9.421875 64.59375 
z
" id="DejaVuSans-105"/>
       <path d="M 48.78125 52.59375 
L 48.78125 44.1875 
Q 44.96875 46.296875 41.140625 47.34375 
Q 37.3125 48.390625 33.40625 48.390625 
Q 24.65625 48.390625 19.8125 42.84375 
Q 14.984375 37.3125 14.984375 27.296875 
Q 14.984375 17.28125 19.8125 11.734375 
Q 24.65625 6.203125 33.40625 6.203125 
Q 37.3125 6.203125 41.140625 7.25 
Q 44.96875 8.296875 48.78125 10.40625 
L 48.78125 2.09375 
Q 45.015625 0.34375 40.984375 -0.53125 
Q 36.96875 -1.421875 32.421875 -1.421875 
Q 20.0625 -1.421875 12.78125 6.34375 
Q 5.515625 14.109375 5.515625 27.296875 
Q 5.515625 40.671875 12.859375 48.328125 
Q 20.21875 56 33.015625 56 
Q 37.15625 56 41.109375 55.140625 
Q 45.0625 54.296875 48.78125 52.59375 
z
" id="DejaVuSans-99"/>
       <path d="M 18.3125 70.21875 
L 18.3125 54.6875 
L 36.8125 54.6875 
L 36.8125 47.703125 
L 18.3125 47.703125 
L 18.3125 18.015625 
Q 18.3125 11.328125 20.140625 9.421875 
Q 21.96875 7.515625 27.59375 7.515625 
L 36.8125 7.515625 
L 36.8125 0 
L 27.59375 0 
Q 17.1875 0 13.234375 3.875 
Q 9.28125 7.765625 9.28125 18.015625 
L 9.28125 47.703125 
L 2.6875 47.703125 
L 2.6875 54.6875 
L 9.28125 54.6875 
L 9.28125 70.21875 
z
" id="DejaVuSans-116"/>
       <path id="DejaVuSans-32"/>
       <path d="M 19.671875 34.8125 
L 19.671875 8.109375 
L 35.5 8.109375 
Q 43.453125 8.109375 47.28125 11.40625 
Q 51.125 14.703125 51.125 21.484375 
Q 51.125 28.328125 47.28125 31.5625 
Q 43.453125 34.8125 35.5 34.8125 
z
M 19.671875 64.796875 
L 19.671875 42.828125 
L 34.28125 42.828125 
Q 41.5 42.828125 45.03125 45.53125 
Q 48.578125 48.25 48.578125 53.8125 
Q 48.578125 59.328125 45.03125 62.0625 
Q 41.5 64.796875 34.28125 64.796875 
z
M 9.8125 72.90625 
L 35.015625 72.90625 
Q 46.296875 72.90625 52.390625 68.21875 
Q 58.5 63.53125 58.5 54.890625 
Q 58.5 48.1875 55.375 44.234375 
Q 52.25 40.28125 46.1875 39.3125 
Q 53.46875 37.75 57.5 32.78125 
Q 61.53125 27.828125 61.53125 20.40625 
Q 61.53125 10.640625 54.890625 5.3125 
Q 48.25 0 35.984375 0 
L 9.8125 0 
z
" id="DejaVuSans-66"/>
       <path d="M 30.609375 48.390625 
Q 23.390625 48.390625 19.1875 42.75 
Q 14.984375 37.109375 14.984375 27.296875 
Q 14.984375 17.484375 19.15625 11.84375 
Q 23.34375 6.203125 30.609375 6.203125 
Q 37.796875 6.203125 41.984375 11.859375 
Q 46.1875 17.53125 46.1875 27.296875 
Q 46.1875 37.015625 41.984375 42.703125 
Q 37.796875 48.390625 30.609375 48.390625 
z
M 30.609375 56 
Q 42.328125 56 49.015625 48.375 
Q 55.71875 40.765625 55.71875 27.296875 
Q 55.71875 13.875 49.015625 6.21875 
Q 42.328125 -1.421875 30.609375 -1.421875 
Q 18.84375 -1.421875 12.171875 6.21875 
Q 5.515625 13.875 5.515625 27.296875 
Q 5.515625 40.765625 12.171875 48.375 
Q 18.84375 56 30.609375 56 
z
" id="DejaVuSans-111"/>
       <path d="M 54.890625 54.6875 
L 35.109375 28.078125 
L 55.90625 0 
L 45.3125 0 
L 29.390625 21.484375 
L 13.484375 0 
L 2.875 0 
L 24.125 28.609375 
L 4.6875 54.6875 
L 15.28125 54.6875 
L 29.78125 35.203125 
L 44.28125 54.6875 
z
" id="DejaVuSans-120"/>
       <path d="M 39.40625 66.21875 
Q 28.65625 66.21875 22.328125 58.203125 
Q 16.015625 50.203125 16.015625 36.375 
Q 16.015625 22.609375 22.328125 14.59375 
Q 28.65625 6.59375 39.40625 6.59375 
Q 50.140625 6.59375 56.421875 14.59375 
Q 62.703125 22.609375 62.703125 36.375 
Q 62.703125 50.203125 56.421875 58.203125 
Q 50.140625 66.21875 39.40625 66.21875 
z
M 39.40625 74.21875 
Q 54.734375 74.21875 63.90625 63.9375 
Q 73.09375 53.65625 73.09375 36.375 
Q 73.09375 19.140625 63.90625 8.859375 
Q 54.734375 -1.421875 39.40625 -1.421875 
Q 24.03125 -1.421875 14.8125 8.828125 
Q 5.609375 19.09375 5.609375 36.375 
Q 5.609375 53.65625 14.8125 63.9375 
Q 24.03125 74.21875 39.40625 74.21875 
z
" id="DejaVuSans-79"/>
       <path d="M 37.109375 75.984375 
L 37.109375 68.5 
L 28.515625 68.5 
Q 23.6875 68.5 21.796875 66.546875 
Q 19.921875 64.59375 19.921875 59.515625 
L 19.921875 54.6875 
L 34.71875 54.6875 
L 34.71875 47.703125 
L 19.921875 47.703125 
L 19.921875 0 
L 10.890625 0 
L 10.890625 47.703125 
L 2.296875 47.703125 
L 2.296875 54.6875 
L 10.890625 54.6875 
L 10.890625 58.5 
Q 10.890625 67.625 15.140625 71.796875 
Q 19.390625 75.984375 28.609375 75.984375 
z
" id="DejaVuSans-102"/>
       <path d="M 53.515625 70.515625 
L 53.515625 60.890625 
Q 47.90625 63.578125 42.921875 64.890625 
Q 37.9375 66.21875 33.296875 66.21875 
Q 25.25 66.21875 20.875 63.09375 
Q 16.5 59.96875 16.5 54.203125 
Q 16.5 49.359375 19.40625 46.890625 
Q 22.3125 44.4375 30.421875 42.921875 
L 36.375 41.703125 
Q 47.40625 39.59375 52.65625 34.296875 
Q 57.90625 29 57.90625 20.125 
Q 57.90625 9.515625 50.796875 4.046875 
Q 43.703125 -1.421875 29.984375 -1.421875 
Q 24.8125 -1.421875 18.96875 -0.25 
Q 13.140625 0.921875 6.890625 3.21875 
L 6.890625 13.375 
Q 12.890625 10.015625 18.65625 8.296875 
Q 24.421875 6.59375 29.984375 6.59375 
Q 38.421875 6.59375 43.015625 9.90625 
Q 47.609375 13.234375 47.609375 19.390625 
Q 47.609375 24.75 44.3125 27.78125 
Q 41.015625 30.8125 33.5 32.328125 
L 27.484375 33.5 
Q 16.453125 35.6875 11.515625 40.375 
Q 6.59375 45.0625 6.59375 53.421875 
Q 6.59375 63.09375 13.40625 68.65625 
Q 20.21875 74.21875 32.171875 74.21875 
Q 37.3125 74.21875 42.625 73.28125 
Q 47.953125 72.359375 53.515625 70.515625 
z
" id="DejaVuSans-83"/>
       <path d="M 14.796875 27.296875 
Q 14.796875 17.390625 18.875 11.75 
Q 22.953125 6.109375 30.078125 6.109375 
Q 37.203125 6.109375 41.296875 11.75 
Q 45.40625 17.390625 45.40625 27.296875 
Q 45.40625 37.203125 41.296875 42.84375 
Q 37.203125 48.484375 30.078125 48.484375 
Q 22.953125 48.484375 18.875 42.84375 
Q 14.796875 37.203125 14.796875 27.296875 
z
M 45.40625 8.203125 
Q 42.578125 3.328125 38.25 0.953125 
Q 33.9375 -1.421875 27.875 -1.421875 
Q 17.96875 -1.421875 11.734375 6.484375 
Q 5.515625 14.40625 5.515625 27.296875 
Q 5.515625 40.1875 11.734375 48.09375 
Q 17.96875 56 27.875 56 
Q 33.9375 56 38.25 53.625 
Q 42.578125 51.265625 45.40625 46.390625 
L 45.40625 54.6875 
L 54.390625 54.6875 
L 54.390625 -20.796875 
L 45.40625 -20.796875 
z
" id="DejaVuSans-113"/>
       <path d="M 8.5 21.578125 
L 8.5 54.6875 
L 17.484375 54.6875 
L 17.484375 21.921875 
Q 17.484375 14.15625 20.5 10.265625 
Q 23.53125 6.390625 29.59375 6.390625 
Q 36.859375 6.390625 41.078125 11.03125 
Q 45.3125 15.671875 45.3125 23.6875 
L 45.3125 54.6875 
L 54.296875 54.6875 
L 54.296875 0 
L 45.3125 0 
L 45.3125 8.40625 
Q 42.046875 3.421875 37.71875 1 
Q 33.40625 -1.421875 27.6875 -1.421875 
Q 18.265625 -1.421875 13.375 4.4375 
Q 8.5 10.296875 8.5 21.578125 
z
M 31.109375 56 
z
" id="DejaVuSans-117"/>
       <path d="M 9.421875 75.984375 
L 18.40625 75.984375 
L 18.40625 0 
L 9.421875 0 
z
" id="DejaVuSans-108"/>
       <path d="M 31 75.875 
Q 24.46875 64.65625 21.28125 53.65625 
Q 18.109375 42.671875 18.109375 31.390625 
Q 18.109375 20.125 21.3125 9.0625 
Q 24.515625 -2 31 -13.1875 
L 23.1875 -13.1875 
Q 15.875 -1.703125 12.234375 9.375 
Q 8.59375 20.453125 8.59375 31.390625 
Q 8.59375 42.28125 12.203125 53.3125 
Q 15.828125 64.359375 23.1875 75.875 
z
" id="DejaVuSans-40"/>
       <path d="M 8.6875 72.90625 
L 18.609375 72.90625 
L 18.609375 28.609375 
Q 18.609375 16.890625 22.84375 11.734375 
Q 27.09375 6.59375 36.625 6.59375 
Q 46.09375 6.59375 50.34375 11.734375 
Q 54.59375 16.890625 54.59375 28.609375 
L 54.59375 72.90625 
L 64.5 72.90625 
L 64.5 27.390625 
Q 64.5 13.140625 57.4375 5.859375 
Q 50.390625 -1.421875 36.625 -1.421875 
Q 22.796875 -1.421875 15.734375 5.859375 
Q 8.6875 13.140625 8.6875 27.390625 
z
" id="DejaVuSans-85"/>
       <path d="M 19.671875 64.796875 
L 19.671875 8.109375 
L 31.59375 8.109375 
Q 46.6875 8.109375 53.6875 14.9375 
Q 60.6875 21.78125 60.6875 36.53125 
Q 60.6875 51.171875 53.6875 57.984375 
Q 46.6875 64.796875 31.59375 64.796875 
z
M 9.8125 72.90625 
L 30.078125 72.90625 
Q 51.265625 72.90625 61.171875 64.09375 
Q 71.09375 55.28125 71.09375 36.53125 
Q 71.09375 17.671875 61.125 8.828125 
Q 51.171875 0 30.078125 0 
L 9.8125 0 
z
" id="DejaVuSans-68"/>
       <path d="M 8.015625 75.875 
L 15.828125 75.875 
Q 23.140625 64.359375 26.78125 53.3125 
Q 30.421875 42.28125 30.421875 31.390625 
Q 30.421875 20.453125 26.78125 9.375 
Q 23.140625 -1.703125 15.828125 -13.1875 
L 8.015625 -13.1875 
Q 14.5 -2 17.703125 9.0625 
Q 20.90625 20.125 20.90625 31.390625 
Q 20.90625 42.671875 17.703125 53.65625 
Q 14.5 64.65625 8.015625 75.875 
z
" id="DejaVuSans-41"/>
       <path d="M 11.71875 12.40625 
L 22.015625 12.40625 
L 22.015625 4 
L 14.015625 -11.625 
L 7.71875 -11.625 
L 11.71875 4 
z
" id="DejaVuSans-44"/>
       <path d="M 9.8125 72.90625 
L 24.515625 72.90625 
L 43.109375 23.296875 
L 61.8125 72.90625 
L 76.515625 72.90625 
L 76.515625 0 
L 66.890625 0 
L 66.890625 64.015625 
L 48.09375 14.015625 
L 38.1875 14.015625 
L 19.390625 64.015625 
L 19.390625 0 
L 9.8125 0 
z
" id="DejaVuSans-77"/>
       <path d="M 54.890625 33.015625 
L 54.890625 0 
L 45.90625 0 
L 45.90625 32.71875 
Q 45.90625 40.484375 42.875 44.328125 
Q 39.84375 48.1875 33.796875 48.1875 
Q 26.515625 48.1875 22.3125 43.546875 
Q 18.109375 38.921875 18.109375 30.90625 
L 18.109375 0 
L 9.078125 0 
L 9.078125 54.6875 
L 18.109375 54.6875 
L 18.109375 46.1875 
Q 21.34375 51.125 25.703125 53.5625 
Q 30.078125 56 35.796875 56 
Q 45.21875 56 50.046875 50.171875 
Q 54.890625 44.34375 54.890625 33.015625 
z
" id="DejaVuSans-110"/>
       <path d="M 44.28125 53.078125 
L 44.28125 44.578125 
Q 40.484375 46.53125 36.375 47.5 
Q 32.28125 48.484375 27.875 48.484375 
Q 21.1875 48.484375 17.84375 46.4375 
Q 14.5 44.390625 14.5 40.28125 
Q 14.5 37.15625 16.890625 35.375 
Q 19.28125 33.59375 26.515625 31.984375 
L 29.59375 31.296875 
Q 39.15625 29.25 43.1875 25.515625 
Q 47.21875 21.78125 47.21875 15.09375 
Q 47.21875 7.46875 41.1875 3.015625 
Q 35.15625 -1.421875 24.609375 -1.421875 
Q 20.21875 -1.421875 15.453125 -0.5625 
Q 10.6875 0.296875 5.421875 2 
L 5.421875 11.28125 
Q 10.40625 8.6875 15.234375 7.390625 
Q 20.0625 6.109375 24.8125 6.109375 
Q 31.15625 6.109375 34.5625 8.28125 
Q 37.984375 10.453125 37.984375 14.40625 
Q 37.984375 18.0625 35.515625 20.015625 
Q 33.0625 21.96875 24.703125 23.78125 
L 21.578125 24.515625 
Q 13.234375 26.265625 9.515625 29.90625 
Q 5.8125 33.546875 5.8125 39.890625 
Q 5.8125 47.609375 11.28125 51.796875 
Q 16.75 56 26.8125 56 
Q 31.78125 56 36.171875 55.265625 
Q 40.578125 54.546875 44.28125 53.078125 
z
" id="DejaVuSans-115"/>
      </defs>
      <use xlink:href="#DejaVuSans-80"/>
      <use x="58.552734" xlink:href="#DejaVuSans-114"/>
      <use x="97.416016" xlink:href="#DejaVuSans-101"/>
      <use x="158.939453" xlink:href="#DejaVuSans-100"/>
      <use x="222.416016" xlink:href="#DejaVuSans-105"/>
      <use x="250.199219" xlink:href="#DejaVuSans-99"/>
      <use x="305.179688" xlink:href="#DejaVuSans-116"/>
      <use x="344.388672" xlink:href="#DejaVuSans-101"/>
      <use x="405.912109" xlink:href="#DejaVuSans-100"/>
      <use x="469.388672" xlink:href="#DejaVuSans-32"/>
      <use x="501.175781" xlink:href="#DejaVuSans-66"/>
      <use x="569.779297" xlink:href="#DejaVuSans-111"/>
      <use x="627.835938" xlink:href="#DejaVuSans-120"/>
      <use x="687.015625" xlink:href="#DejaVuSans-32"/>
      <use x="718.802734" xlink:href="#DejaVuSans-79"/>
      <use x="797.513672" xlink:href="#DejaVuSans-102"/>
      <use x="832.71875" xlink:href="#DejaVuSans-102"/>
      <use x="867.923828" xlink:href="#DejaVuSans-105"/>
      <use x="895.707031" xlink:href="#DejaVuSans-99"/>
      <use x="950.6875" xlink:href="#DejaVuSans-101"/>
      <use x="1012.210938" xlink:href="#DejaVuSans-32"/>
      <use x="1043.998047" xlink:href="#DejaVuSans-83"/>
      <use x="1107.474609" xlink:href="#DejaVuSans-101"/>
      <use x="1168.998047" xlink:href="#DejaVuSans-113"/>
      <use x="1232.474609" xlink:href="#DejaVuSans-117"/>
      <use x="1295.853516" xlink:href="#DejaVuSans-101"/>
      <use x="1357.376953" xlink:href="#DejaVuSans-108"/>
      <use x="1385.160156" xlink:href="#DejaVuSans-32"/>
      <use x="1416.947266" xlink:href="#DejaVuSans-40"/>
      <use x="1455.960938" xlink:href="#DejaVuSans-85"/>
      <use x="1529.154297" xlink:href="#DejaVuSans-83"/>
      <use x="1592.630859" xlink:href="#DejaVuSans-68"/>
      <use x="1669.632812" xlink:href="#DejaVuSans-41"/>
      <use x="1708.646484" xlink:href="#DejaVuSans-44"/>
      <use x="1740.433594" xlink:href="#DejaVuSans-32"/>
      <use x="1772.220703" xlink:href="#DejaVuSans-77"/>
      <use x="1858.5" xlink:href="#DejaVuSans-105"/>
      <use x="1886.283203" xlink:href="#DejaVuSans-108"/>
      <use x="1914.066406" xlink:href="#DejaVuSans-108"/>
      <use x="1941.849609" xlink:href="#DejaVuSans-105"/>
      <use x="1969.632812" xlink:href="#DejaVuSans-111"/>
      <use x="2030.814453" xlink:href="#DejaVuSans-110"/>
      <use x="2094.193359" xlink:href="#DejaVuSans-115"/>
     </g>
    </g>
   </g>
   <g id="matplotlib.axis_2">
    <g id="ytick_1">
     <g id="line2d_6">
      <defs>
       <path d="M 0 0 
L -3.5 0 
" id="m307588a8ca" style="stroke:#000000;stroke-width:0.8;"/>
      </defs>
      <g>
       <use style="stroke:#000000;stroke-width:0.8;" x="126" xlink:href="#m307588a8ca" y="348.225027"/>
      </g>
     </g>
     <g id="text_7">
      <!-- −50 -->
      <g transform="translate(93.674375 352.78409)scale(0.12 -0.12)">
       <defs>
        <path d="M 10.59375 35.5 
L 73.1875 35.5 
L 73.1875 27.203125 
L 10.59375 27.203125 
z
" id="DejaVuSans-8722"/>
       </defs>
       <use xlink:href="#DejaVuSans-8722"/>
       <use x="83.789062" xlink:href="#DejaVuSans-53"/>
       <use x="147.412109" xlink:href="#DejaVuSans-48"/>
      </g>
     </g>
    </g>
    <g id="ytick_2">
     <g id="line2d_7">
      <g>
       <use style="stroke:#000000;stroke-width:0.8;" x="126" xlink:href="#m307588a8ca" y="308.187274"/>
      </g>
     </g>
     <g id="text_8">
      <!-- −25 -->
      <g transform="translate(93.674375 312.746336)scale(0.12 -0.12)">
       <use xlink:href="#DejaVuSans-8722"/>
       <use x="83.789062" xlink:href="#DejaVuSans-50"/>
       <use x="147.412109" xlink:href="#DejaVuSans-53"/>
      </g>
     </g>
    </g>
    <g id="ytick_3">
     <g id="line2d_8">
      <g>
       <use style="stroke:#000000;stroke-width:0.8;" x="126" xlink:href="#m307588a8ca" y="268.14952"/>
      </g>
     </g>
     <g id="text_9">
      <!-- 0 -->
      <g transform="translate(111.365 272.708583)scale(0.12 -0.12)">
       <use xlink:href="#DejaVuSans-48"/>
      </g>
     </g>
    </g>
    <g id="ytick_4">
     <g id="line2d_9">
      <g>
       <use style="stroke:#000000;stroke-width:0.8;" x="126" xlink:href="#m307588a8ca" y="228.111767"/>
      </g>
     </g>
     <g id="text_10">
      <!-- 25 -->
      <g transform="translate(103.73 232.67083)scale(0.12 -0.12)">
       <use xlink:href="#DejaVuSans-50"/>
       <use x="63.623047" xlink:href="#DejaVuSans-53"/>
      </g>
     </g>
    </g>
    <g id="ytick_5">
     <g id="line2d_10">
      <g>
       <use style="stroke:#000000;stroke-width:0.8;" x="126" xlink:href="#m307588a8ca" y="188.074014"/>
      </g>
     </g>
     <g id="text_11">
      <!-- 50 -->
      <g transform="translate(103.73 192.633076)scale(0.12 -0.12)">
       <use xlink:href="#DejaVuSans-53"/>
       <use x="63.623047" xlink:href="#DejaVuSans-48"/>
      </g>
     </g>
    </g>
    <g id="ytick_6">
     <g id="line2d_11">
      <g>
       <use style="stroke:#000000;stroke-width:0.8;" x="126" xlink:href="#m307588a8ca" y="148.03626"/>
      </g>
     </g>
     <g id="text_12">
      <!-- 75 -->
      <g transform="translate(103.73 152.595323)scale(0.12 -0.12)">
       <defs>
        <path d="M 8.203125 72.90625 
L 55.078125 72.90625 
L 55.078125 68.703125 
L 28.609375 0 
L 18.3125 0 
L 43.21875 64.59375 
L 8.203125 64.59375 
z
" id="DejaVuSans-55"/>
       </defs>
       <use xlink:href="#DejaVuSans-55"/>
       <use x="63.623047" xlink:href="#DejaVuSans-53"/>
      </g>
     </g>
    </g>
    <g id="ytick_7">
     <g id="line2d_12">
      <g>
       <use style="stroke:#000000;stroke-width:0.8;" x="126" xlink:href="#m307588a8ca" y="107.998507"/>
      </g>
     </g>
     <g id="text_13">
      <!-- 100 -->
      <g transform="translate(96.095 112.557569)scale(0.12 -0.12)">
       <use xlink:href="#DejaVuSans-49"/>
       <use x="63.623047" xlink:href="#DejaVuSans-48"/>
       <use x="127.246094" xlink:href="#DejaVuSans-48"/>
      </g>
     </g>
    </g>
    <g id="ytick_8">
     <g id="line2d_13">
      <g>
       <use style="stroke:#000000;stroke-width:0.8;" x="126" xlink:href="#m307588a8ca" y="67.960754"/>
      </g>
     </g>
     <g id="text_14">
      <!-- 125 -->
      <g transform="translate(96.095 72.519816)scale(0.12 -0.12)">
       <use xlink:href="#DejaVuSans-49"/>
       <use x="63.623047" xlink:href="#DejaVuSans-50"/>
       <use x="127.246094" xlink:href="#DejaVuSans-53"/>
      </g>
     </g>
    </g>
    <g id="text_15">
     <!-- Residuals, ($y_{test}$ - $\widehat{y}$), (USD) Millions -->
     <g transform="translate(86.734375 336.51)rotate(-90)scale(0.14 -0.14)">
      <defs>
       <path d="M 44.390625 34.1875 
Q 47.5625 33.109375 50.5625 29.59375 
Q 53.5625 26.078125 56.59375 19.921875 
L 66.609375 0 
L 56 0 
L 46.6875 18.703125 
Q 43.0625 26.03125 39.671875 28.421875 
Q 36.28125 30.8125 30.421875 30.8125 
L 19.671875 30.8125 
L 19.671875 0 
L 9.8125 0 
L 9.8125 72.90625 
L 32.078125 72.90625 
Q 44.578125 72.90625 50.734375 67.671875 
Q 56.890625 62.453125 56.890625 51.90625 
Q 56.890625 45.015625 53.6875 40.46875 
Q 50.484375 35.9375 44.390625 34.1875 
z
M 19.671875 64.796875 
L 19.671875 38.921875 
L 32.078125 38.921875 
Q 39.203125 38.921875 42.84375 42.21875 
Q 46.484375 45.515625 46.484375 51.90625 
Q 46.484375 58.296875 42.84375 61.546875 
Q 39.203125 64.796875 32.078125 64.796875 
z
" id="DejaVuSans-82"/>
       <path d="M 34.28125 27.484375 
Q 23.390625 27.484375 19.1875 25 
Q 14.984375 22.515625 14.984375 16.5 
Q 14.984375 11.71875 18.140625 8.90625 
Q 21.296875 6.109375 26.703125 6.109375 
Q 34.1875 6.109375 38.703125 11.40625 
Q 43.21875 16.703125 43.21875 25.484375 
L 43.21875 27.484375 
z
M 52.203125 31.203125 
L 52.203125 0 
L 43.21875 0 
L 43.21875 8.296875 
Q 40.140625 3.328125 35.546875 0.953125 
Q 30.953125 -1.421875 24.3125 -1.421875 
Q 15.921875 -1.421875 10.953125 3.296875 
Q 6 8.015625 6 15.921875 
Q 6 25.140625 12.171875 29.828125 
Q 18.359375 34.515625 30.609375 34.515625 
L 43.21875 34.515625 
L 43.21875 35.40625 
Q 43.21875 41.609375 39.140625 45 
Q 35.0625 48.390625 27.6875 48.390625 
Q 23 48.390625 18.546875 47.265625 
Q 14.109375 46.140625 10.015625 43.890625 
L 10.015625 52.203125 
Q 14.9375 54.109375 19.578125 55.046875 
Q 24.21875 56 28.609375 56 
Q 40.484375 56 46.34375 49.84375 
Q 52.203125 43.703125 52.203125 31.203125 
z
" id="DejaVuSans-97"/>
       <path d="M 24.8125 -5.078125 
Q 18.5625 -15.578125 14.625 -18.1875 
Q 10.6875 -20.796875 4.59375 -20.796875 
L -2.484375 -20.796875 
L -0.984375 -13.28125 
L 4.203125 -13.28125 
Q 7.953125 -13.28125 10.59375 -11.234375 
Q 13.234375 -9.1875 16.5 -3.21875 
L 19.28125 2 
L 7.171875 54.6875 
L 16.703125 54.6875 
L 25.78125 12.796875 
L 50.875 54.6875 
L 60.296875 54.6875 
z
" id="DejaVuSans-Oblique-121"/>
       <path d="M 42.28125 54.6875 
L 40.921875 47.703125 
L 23 47.703125 
L 17.1875 18.015625 
Q 16.890625 16.359375 16.75 15.234375 
Q 16.609375 14.109375 16.609375 13.484375 
Q 16.609375 10.359375 18.484375 8.9375 
Q 20.359375 7.515625 24.515625 7.515625 
L 33.59375 7.515625 
L 32.078125 0 
L 23.484375 0 
Q 15.484375 0 11.546875 3.125 
Q 7.625 6.25 7.625 12.59375 
Q 7.625 13.71875 7.765625 15.0625 
Q 7.90625 16.40625 8.203125 18.015625 
L 14.015625 47.703125 
L 6.390625 47.703125 
L 7.8125 54.6875 
L 15.28125 54.6875 
L 18.3125 70.21875 
L 27.296875 70.21875 
L 24.3125 54.6875 
z
" id="DejaVuSans-Oblique-116"/>
       <path d="M 48.09375 32.234375 
Q 48.25 33.015625 48.3125 33.84375 
Q 48.390625 34.671875 48.390625 35.5 
Q 48.390625 41.453125 44.890625 44.921875 
Q 41.40625 48.390625 35.40625 48.390625 
Q 28.71875 48.390625 23.578125 44.15625 
Q 18.453125 39.9375 15.828125 32.171875 
z
M 55.90625 25.203125 
L 14.109375 25.203125 
Q 13.8125 23.34375 13.71875 22.265625 
Q 13.625 21.1875 13.625 20.40625 
Q 13.625 13.625 17.796875 9.90625 
Q 21.96875 6.203125 29.59375 6.203125 
Q 35.453125 6.203125 40.671875 7.515625 
Q 45.90625 8.84375 50.390625 11.375 
L 48.6875 2.484375 
Q 43.84375 0.53125 38.6875 -0.4375 
Q 33.546875 -1.421875 28.21875 -1.421875 
Q 16.84375 -1.421875 10.71875 4.015625 
Q 4.59375 9.46875 4.59375 19.484375 
Q 4.59375 28.03125 7.640625 35.375 
Q 10.6875 42.71875 16.609375 48.484375 
Q 20.40625 52.09375 25.65625 54.046875 
Q 30.90625 56 36.8125 56 
Q 46.09375 56 51.578125 50.4375 
Q 57.078125 44.875 57.078125 35.5 
Q 57.078125 33.25 56.78125 30.6875 
Q 56.5 28.125 55.90625 25.203125 
z
" id="DejaVuSans-Oblique-101"/>
       <path d="M 50 53.078125 
L 48.296875 44.578125 
Q 44.734375 46.53125 40.765625 47.5 
Q 36.8125 48.484375 32.625 48.484375 
Q 25.53125 48.484375 21.453125 46.0625 
Q 17.390625 43.65625 17.390625 39.5 
Q 17.390625 34.671875 26.859375 32.078125 
Q 27.59375 31.890625 27.9375 31.78125 
L 30.8125 30.90625 
Q 39.796875 28.421875 42.796875 25.6875 
Q 45.796875 22.953125 45.796875 18.21875 
Q 45.796875 9.515625 38.890625 4.046875 
Q 31.984375 -1.421875 20.796875 -1.421875 
Q 16.453125 -1.421875 11.671875 -0.578125 
Q 6.890625 0.25 1.125 2 
L 2.875 11.28125 
Q 7.8125 8.734375 12.59375 7.421875 
Q 17.390625 6.109375 21.78125 6.109375 
Q 28.375 6.109375 32.5 8.9375 
Q 36.625 11.765625 36.625 16.109375 
Q 36.625 20.796875 25.78125 23.6875 
L 24.859375 23.921875 
L 21.78125 24.703125 
Q 14.9375 26.515625 11.765625 29.46875 
Q 8.59375 32.421875 8.59375 37.015625 
Q 8.59375 45.75 15.15625 50.875 
Q 21.734375 56 33.015625 56 
Q 37.453125 56 41.671875 55.265625 
Q 45.90625 54.546875 50 53.078125 
z
" id="DejaVuSans-Oblique-115"/>
       <path d="M 4.890625 31.390625 
L 31.203125 31.390625 
L 31.203125 23.390625 
L 4.890625 23.390625 
z
" id="DejaVuSans-45"/>
       <path d="M -17.09375 56.40625 
L -27 56.40625 
L -66 70.90625 
L -105.09375 56.40625 
L -115 56.40625 
L -68.40625 77.703125 
L -63.59375 77.703125 
z
" id="STIXSizeTwoSym-Regular-770"/>
      </defs>
      <use transform="translate(0 0.03125)" xlink:href="#DejaVuSans-82"/>
      <use transform="translate(69.482422 0.03125)" xlink:href="#DejaVuSans-101"/>
      <use transform="translate(131.005859 0.03125)" xlink:href="#DejaVuSans-115"/>
      <use transform="translate(183.105469 0.03125)" xlink:href="#DejaVuSans-105"/>
      <use transform="translate(210.888672 0.03125)" xlink:href="#DejaVuSans-100"/>
      <use transform="translate(274.365234 0.03125)" xlink:href="#DejaVuSans-117"/>
      <use transform="translate(337.744141 0.03125)" xlink:href="#DejaVuSans-97"/>
      <use transform="translate(399.023438 0.03125)" xlink:href="#DejaVuSans-108"/>
      <use transform="translate(426.806641 0.03125)" xlink:href="#DejaVuSans-115"/>
      <use transform="translate(478.90625 0.03125)" xlink:href="#DejaVuSans-44"/>
      <use transform="translate(510.693359 0.03125)" xlink:href="#DejaVuSans-32"/>
      <use transform="translate(542.480469 0.03125)" xlink:href="#DejaVuSans-40"/>
      <use transform="translate(581.494141 0.03125)" xlink:href="#DejaVuSans-Oblique-121"/>
      <use transform="translate(640.673828 -16.375)scale(0.7)" xlink:href="#DejaVuSans-Oblique-116"/>
      <use transform="translate(668.120117 -16.375)scale(0.7)" xlink:href="#DejaVuSans-Oblique-101"/>
      <use transform="translate(711.186523 -16.375)scale(0.7)" xlink:href="#DejaVuSans-Oblique-115"/>
      <use transform="translate(747.65625 -16.375)scale(0.7)" xlink:href="#DejaVuSans-Oblique-116"/>
      <use transform="translate(777.836914 0.03125)" xlink:href="#DejaVuSans-32"/>
      <use transform="translate(809.624023 0.03125)" xlink:href="#DejaVuSans-45"/>
      <use transform="translate(845.708008 0.03125)" xlink:href="#DejaVuSans-32"/>
      <use transform="translate(954.868164 33.375)scale(0.604453)" xlink:href="#STIXSizeTwoSym-Regular-770"/>
      <use transform="translate(877.495117 0.03125)" xlink:href="#DejaVuSans-Oblique-121"/>
      <use transform="translate(936.674805 0.03125)" xlink:href="#DejaVuSans-41"/>
      <use transform="translate(975.688477 0.03125)" xlink:href="#DejaVuSans-44"/>
      <use transform="translate(1007.475586 0.03125)" xlink:href="#DejaVuSans-32"/>
      <use transform="translate(1039.262695 0.03125)" xlink:href="#DejaVuSans-40"/>
      <use transform="translate(1078.276367 0.03125)" xlink:href="#DejaVuSans-85"/>
      <use transform="translate(1151.469727 0.03125)" xlink:href="#DejaVuSans-83"/>
      <use transform="translate(1214.946289 0.03125)" xlink:href="#DejaVuSans-68"/>
      <use transform="translate(1291.948242 0.03125)" xlink:href="#DejaVuSans-41"/>
      <use transform="translate(1330.961914 0.03125)" xlink:href="#DejaVuSans-32"/>
      <use transform="translate(1362.749023 0.03125)" xlink:href="#DejaVuSans-77"/>
      <use transform="translate(1449.02832 0.03125)" xlink:href="#DejaVuSans-105"/>
      <use transform="translate(1476.811523 0.03125)" xlink:href="#DejaVuSans-108"/>
      <use transform="translate(1504.594727 0.03125)" xlink:href="#DejaVuSans-108"/>
      <use transform="translate(1532.37793 0.03125)" xlink:href="#DejaVuSans-105"/>
      <use transform="translate(1560.161133 0.03125)" xlink:href="#DejaVuSans-111"/>
      <use transform="translate(1621.342773 0.03125)" xlink:href="#DejaVuSans-110"/>
      <use transform="translate(1684.72168 0.03125)" xlink:href="#DejaVuSans-115"/>
     </g>
    </g>
   </g>
   <g id="line2d_14">
    <path clip-path="url(#pa5e6e1008a)" d="M 126 268.14952 
L 907.2 268.14952 
" style="fill:none;stroke:#000000;stroke-linecap:square;stroke-width:1.5;"/>
   </g>
   <g id="patch_3">
    <path d="M 126 378 
L 126 51.84 
" style="fill:none;stroke:#000000;stroke-linecap:square;stroke-linejoin:miter;stroke-width:0.8;"/>
   </g>
   <g id="patch_4">
    <path d="M 907.2 378 
L 907.2 51.84 
" style="fill:none;stroke:#000000;stroke-linecap:square;stroke-linejoin:miter;stroke-width:0.8;"/>
   </g>
   <g id="patch_5">
    <path d="M 126 378 
L 907.2 378 
" style="fill:none;stroke:#000000;stroke-linecap:square;stroke-linejoin:miter;stroke-width:0.8;"/>
   </g>
   <g id="patch_6">
    <path d="M 126 51.84 
L 907.2 51.84 
" style="fill:none;stroke:#000000;stroke-linecap:square;stroke-linejoin:miter;stroke-width:0.8;"/>
   </g>
   <g id="text_16">
    <!-- Residuals vs Predicted Box Office Returns, Option 4 -->
    <g transform="translate(311.00625 45.84)scale(0.16 -0.16)">
     <defs>
      <path d="M 2.984375 54.6875 
L 12.5 54.6875 
L 29.59375 8.796875 
L 46.6875 54.6875 
L 56.203125 54.6875 
L 35.6875 0 
L 23.484375 0 
z
" id="DejaVuSans-118"/>
      <path d="M 18.109375 8.203125 
L 18.109375 -20.796875 
L 9.078125 -20.796875 
L 9.078125 54.6875 
L 18.109375 54.6875 
L 18.109375 46.390625 
Q 20.953125 51.265625 25.265625 53.625 
Q 29.59375 56 35.59375 56 
Q 45.5625 56 51.78125 48.09375 
Q 58.015625 40.1875 58.015625 27.296875 
Q 58.015625 14.40625 51.78125 6.484375 
Q 45.5625 -1.421875 35.59375 -1.421875 
Q 29.59375 -1.421875 25.265625 0.953125 
Q 20.953125 3.328125 18.109375 8.203125 
z
M 48.6875 27.296875 
Q 48.6875 37.203125 44.609375 42.84375 
Q 40.53125 48.484375 33.40625 48.484375 
Q 26.265625 48.484375 22.1875 42.84375 
Q 18.109375 37.203125 18.109375 27.296875 
Q 18.109375 17.390625 22.1875 11.75 
Q 26.265625 6.109375 33.40625 6.109375 
Q 40.53125 6.109375 44.609375 11.75 
Q 48.6875 17.390625 48.6875 27.296875 
z
" id="DejaVuSans-112"/>
      <path d="M 37.796875 64.3125 
L 12.890625 25.390625 
L 37.796875 25.390625 
z
M 35.203125 72.90625 
L 47.609375 72.90625 
L 47.609375 25.390625 
L 58.015625 25.390625 
L 58.015625 17.1875 
L 47.609375 17.1875 
L 47.609375 0 
L 37.796875 0 
L 37.796875 17.1875 
L 4.890625 17.1875 
L 4.890625 26.703125 
z
" id="DejaVuSans-52"/>
     </defs>
     <use xlink:href="#DejaVuSans-82"/>
     <use x="64.982422" xlink:href="#DejaVuSans-101"/>
     <use x="126.505859" xlink:href="#DejaVuSans-115"/>
     <use x="178.605469" xlink:href="#DejaVuSans-105"/>
     <use x="206.388672" xlink:href="#DejaVuSans-100"/>
     <use x="269.865234" xlink:href="#DejaVuSans-117"/>
     <use x="333.244141" xlink:href="#DejaVuSans-97"/>
     <use x="394.523438" xlink:href="#DejaVuSans-108"/>
     <use x="422.306641" xlink:href="#DejaVuSans-115"/>
     <use x="474.40625" xlink:href="#DejaVuSans-32"/>
     <use x="506.193359" xlink:href="#DejaVuSans-118"/>
     <use x="565.373047" xlink:href="#DejaVuSans-115"/>
     <use x="617.472656" xlink:href="#DejaVuSans-32"/>
     <use x="649.259766" xlink:href="#DejaVuSans-80"/>
     <use x="707.8125" xlink:href="#DejaVuSans-114"/>
     <use x="746.675781" xlink:href="#DejaVuSans-101"/>
     <use x="808.199219" xlink:href="#DejaVuSans-100"/>
     <use x="871.675781" xlink:href="#DejaVuSans-105"/>
     <use x="899.458984" xlink:href="#DejaVuSans-99"/>
     <use x="954.439453" xlink:href="#DejaVuSans-116"/>
     <use x="993.648438" xlink:href="#DejaVuSans-101"/>
     <use x="1055.171875" xlink:href="#DejaVuSans-100"/>
     <use x="1118.648438" xlink:href="#DejaVuSans-32"/>
     <use x="1150.435547" xlink:href="#DejaVuSans-66"/>
     <use x="1219.039062" xlink:href="#DejaVuSans-111"/>
     <use x="1277.095703" xlink:href="#DejaVuSans-120"/>
     <use x="1336.275391" xlink:href="#DejaVuSans-32"/>
     <use x="1368.0625" xlink:href="#DejaVuSans-79"/>
     <use x="1446.773438" xlink:href="#DejaVuSans-102"/>
     <use x="1481.978516" xlink:href="#DejaVuSans-102"/>
     <use x="1517.183594" xlink:href="#DejaVuSans-105"/>
     <use x="1544.966797" xlink:href="#DejaVuSans-99"/>
     <use x="1599.947266" xlink:href="#DejaVuSans-101"/>
     <use x="1661.470703" xlink:href="#DejaVuSans-32"/>
     <use x="1693.257812" xlink:href="#DejaVuSans-82"/>
     <use x="1758.240234" xlink:href="#DejaVuSans-101"/>
     <use x="1819.763672" xlink:href="#DejaVuSans-116"/>
     <use x="1858.972656" xlink:href="#DejaVuSans-117"/>
     <use x="1922.351562" xlink:href="#DejaVuSans-114"/>
     <use x="1961.714844" xlink:href="#DejaVuSans-110"/>
     <use x="2025.09375" xlink:href="#DejaVuSans-115"/>
     <use x="2077.193359" xlink:href="#DejaVuSans-44"/>
     <use x="2108.980469" xlink:href="#DejaVuSans-32"/>
     <use x="2140.767578" xlink:href="#DejaVuSans-79"/>
     <use x="2219.478516" xlink:href="#DejaVuSans-112"/>
     <use x="2282.955078" xlink:href="#DejaVuSans-116"/>
     <use x="2322.164062" xlink:href="#DejaVuSans-105"/>
     <use x="2349.947266" xlink:href="#DejaVuSans-111"/>
     <use x="2411.128906" xlink:href="#DejaVuSans-110"/>
     <use x="2474.507812" xlink:href="#DejaVuSans-32"/>
     <use x="2506.294922" xlink:href="#DejaVuSans-52"/>
    </g>
   </g>
  </g>
 </g>
 <defs>
  <clipPath id="pa5e6e1008a">
   <rect height="326.16" width="781.2" x="126" y="51.84"/>
  </clipPath>
 </defs>
</svg>
